<?xml version="1.0" encoding="UTF-8"?>
<svg width="275.58mm" height="237.46mm" version="1.1" viewBox="0 0 275.58 237.46" xmlns="http://www.w3.org/2000/svg" xmlns:cc="http://creativecommons.org/ns#" xmlns:dc="http://purl.org/dc/elements/1.1/" xmlns:rdf="http://www.w3.org/1999/02/22-rdf-syntax-ns#">
<metadata>
<rdf:RDF>
<cc:Work rdf:about="">
<dc:format>image/svg+xml</dc:format>
<dc:type rdf:resource="http://purl.org/dc/dcmitype/StillImage"/>
<dc:title/>
</cc:Work>
</rdf:RDF>
</metadata>
<g transform="translate(-10.018 -3.9581)">
<text x="176.93243" y="131.50595" fill="#000000" font-family="sans-serif" font-size="12.7px" letter-spacing="0px" stroke-width=".26458" word-spacing="0px" style="line-height:1.25" xml:space="preserve"><tspan x="176.93243" y="143.09254" stroke-width=".26458"/></text>
<g transform="matrix(.92394 0 0 .92394 11.242 9.3313)">
<path d="m34.018 15.542 112.07 68.225 111.5-68.225" fill="none" stroke="#000" stroke-width="1.5"/>
<path d="m257.59 236.59-112.07-68.225-111.5 68.225" fill="none" stroke="#000" stroke-width="1.5"/>
<path d="m145.53 168.08c-2.1805-1.4986-6.5034-2.4363-6.619-4.7457 0.12651-5.7478 13.9-4.0847 14.174-9.8274 0.27918-5.8493-13.492-5.4838-13.418-11.339 0.0722-5.7353 13.452-5.0367 13.418-10.772-0.0346-5.9229-14.035-5.0386-13.985-10.961 0.0496-5.8459 14.249-4.3265 14.165-10.172-0.0815-5.6456-13.696-4.1821-13.796-9.8274-0.10263-5.7951 13.718-4.7879 13.796-10.583 0.0404-3.0005-6.9926-5.6696-6.9926-5.6696" fill="none" stroke="#000"/>
<text x="8.5891943" y="23.122038" fill="#000000" font-family="sans-serif" font-size="27.611px" letter-spacing="0px" stroke-width=".57523" word-spacing="0px" style="line-height:1.25" xml:space="preserve"><tspan x="8.5891943" y="23.122038" stroke-width=".57523">e</tspan></text>
<path d="m23.743 4.4581h7.8274" fill="none" stroke="#000"/>
<g transform="translate(254.03)">
<text x="8.5891943" y="23.122038" fill="#000000" font-family="sans-serif" font-size="27.611px" letter-spacing="0px" stroke-width=".57523" word-spacing="0px" style="line-height:1.25" xml:space="preserve"><tspan x="8.5891943" y="23.122038" stroke-width=".57523">e</tspan></text>
<path d="m23.743 4.4581h7.8274" fill="none" stroke="#000"/>
</g>
<g transform="translate(254.03 217.95)">
<text x="8.5891943" y="23.122038" fill="#000000" font-family="sans-serif" font-size="27.611px" letter-spacing="0px" stroke-width=".57523" word-spacing="0px" style="line-height:1.25" xml:space="preserve"><tspan x="8.5891943" y="23.122038" stroke-width=".57523">e</tspan></text>
<path d="m23.743 4.4581h7.8274" fill="none" stroke="#000"/>
</g>
<g transform="translate(0 217.95)">
<text x="8.5891943" y="23.122038" fill="#000000" font-family="sans-serif" font-size="27.611px" letter-spacing="0px" stroke-width=".57523" word-spacing="0px" style="line-height:1.25" xml:space="preserve"><tspan x="8.5891943" y="23.122038" stroke-width=".57523">e</tspan></text>
<path d="m23.743 4.4581h7.8274" fill="none" stroke="#000"/>
</g>
<path d="m83.421 213.4-5.781-10.013 14.836-2.1382z"/>
<path d="m83.421 38.969-5.781 10.013 14.836 2.1382z"/>
<path d="m208.17 52.389-5.781-10.013 14.836-2.1382z"/>
<path d="m208.17 200-5.781 10.013 14.836 2.1382z"/>
<path d="m162.64 120.5s0.55568-2.9605 1.655-2.8666c3.7158 0.31759 3.8686 10.498 3.8686 10.498s-2.6565 6.2135-0.50876 6.4684c2.1437 0.25441 1.0175-6.3958 1.0175-6.3958l4.1427-10.611" fill="none" stroke="#000" stroke-linecap="round"/>
</g>
</g>
</svg>
