<?xml version="1.0" encoding="UTF-8" standalone="no"?>
<!-- Created with Inkscape (http://www.inkscape.org/) -->
<svg
   xmlns:dc="http://purl.org/dc/elements/1.1/"
   xmlns:cc="http://web.resource.org/cc/"
   xmlns:rdf="http://www.w3.org/1999/02/22-rdf-syntax-ns#"
   xmlns:svg="http://www.w3.org/2000/svg"
   xmlns="http://www.w3.org/2000/svg"
   xmlns:sodipodi="http://sodipodi.sourceforge.net/DTD/sodipodi-0.dtd"
   xmlns:inkscape="http://www.inkscape.org/namespaces/inkscape"
   width="850"
   height="600"
   id="svg2310"
   sodipodi:version="0.32"
   inkscape:version="0.45.1"
   version="1.0"
   sodipodi:docbase="C:\Documents and Settings\JJB\My Documents"
   sodipodi:docname="Butterworth Filter.svg"
   inkscape:output_extension="org.inkscape.output.svg.inkscape">
  <sodipodi:namedview
     id="base"
     pagecolor="#ffffff"
     bordercolor="#666666"
     borderopacity="1.0"
     gridtolerance="10000"
     guidetolerance="10"
     objecttolerance="10"
     inkscape:pageopacity="0.0"
     inkscape:pageshadow="2"
     inkscape:zoom="1"
     inkscape:cx="425"
     inkscape:cy="300"
     inkscape:document-units="px"
     inkscape:current-layer="layer1"
     width="850px"
     height="600px"
     showguides="true"
     inkscape:guide-bbox="true"
     inkscape:grid-points="true"
     showgrid="false"
     gridspacingx="5px"
     gridspacingy="5px"
     inkscape:window-width="1382"
     inkscape:window-height="874"
     inkscape:window-x="54"
     inkscape:window-y="-4" />
  <defs
     id="defs2312" />
  <metadata
     id="metadata2315">
    <rdf:RDF>
      <cc:Work
         rdf:about="">
        <dc:format>image/svg+xml</dc:format>
        <dc:type
           rdf:resource="http://purl.org/dc/dcmitype/StillImage" />
      </cc:Work>
    </rdf:RDF>
  </metadata>
  <g
     inkscape:label="Layer 1"
     id="layer1"
     inkscape:groupmode="layer">
    <rect
       style="fill:#ffffff;stroke:#000000;stroke-width:2.00000024"
       id="rect9485"
       width="761.98773"
       y="25"
       x="75.000656"
       height="498.99997" />
    <g
       id="g9475"
       transform="translate(25,0)">
      <path
         style="fill:none;fill-rule:evenodd;stroke:#999999;stroke-width:1px;stroke-linecap:butt;stroke-linejoin:miter;stroke-opacity:1"
         id="path5737"
         d="M 626.5,522.49741 L 626.5,24.5" />
      <path
         style="fill:none;fill-rule:evenodd;stroke:#999999;stroke-width:1px;stroke-linecap:butt;stroke-linejoin:miter;stroke-opacity:1"
         id="path5735"
         d="M 440.5,522.99741 L 440.5,25" />
      <path
         style="fill:none;fill-rule:evenodd;stroke:#999999;stroke-width:1px;stroke-linecap:butt;stroke-linejoin:miter;stroke-opacity:1"
         id="path5733"
         d="M 253.5,522.99741 L 253.5,25" />
      <path
         style="fill:none;fill-rule:evenodd;stroke:#999999;stroke-width:1px;stroke-linecap:butt;stroke-linejoin:miter;stroke-opacity:1"
         id="path5731"
         d="M 68.5,523.50196 L 68.5,25.504551" />
      <path
         style="fill:none;fill-rule:evenodd;stroke:#999999;stroke-width:1px;stroke-linecap:butt;stroke-linejoin:miter;stroke-opacity:1"
         id="path5721"
         d="M 50.04497,136.5 L 813.00003,136.5" />
      <path
         style="fill:none;fill-rule:evenodd;stroke:#999999;stroke-width:1px;stroke-linecap:butt;stroke-linejoin:miter;stroke-opacity:1"
         id="path5729"
         d="M 49.500002,426.5 L 812.45506,426.5" />
      <path
         style="fill:none;fill-rule:evenodd;stroke:#999999;stroke-width:1px;stroke-linecap:butt;stroke-linejoin:miter;stroke-opacity:1"
         id="path5727"
         d="M 50.04497,330.5 L 813.00003,330.5" />
      <path
         style="fill:none;fill-rule:evenodd;stroke:#999999;stroke-width:1px;stroke-linecap:butt;stroke-linejoin:miter;stroke-opacity:1"
         id="path5725"
         d="M 49.500002,233.5 L 812.45506,233.5" />
    </g>
    <path
       style="fill:none;fill-rule:evenodd;stroke:#999999;stroke-width:1px;stroke-linecap:butt;stroke-linejoin:miter;stroke-opacity:1"
       d="M 74.500002,40.5 L 837.45506,40.5"
       id="path5723" />
    <rect
       style="fill:none;stroke:#000000;stroke-width:2.00000024"
       id="rect5719"
       width="761.98773"
       y="25"
       x="75.000656"
       height="498.99997" />
    <polyline
       style="font-size:0.07343875px;fill:none;stroke:#ff0000;stroke-width:0.00871382;font-family:&quot;Courier New&quot;, Courier, Symbol, monospace"
       transform="matrix(186.15503,0,0,-186.15503,465.26337,40.362207)"
       points="  -1.99996,-0.0000112748 -1.39878,-0.000179528 -1.17298,-0.000507112 -1.00626,-0.00109001 -0.891857,-0.00183984  -0.80758,-0.00270188 -0.742058,-0.0036383 -0.679961,-0.00481733 -0.622584,-0.00623459 -0.571737,-0.00782367  -0.522964,-0.0097112 -0.446678,-0.0135613 -0.37056,-0.0188019 -0.310962,-0.0241426 -0.212971,-0.0359013  -0.126441,-0.0500301 -0.00290038,-0.0773884 0.190182,-0.137985 0.315081,-0.187305 0.485962,-0.26371  0.614902,-0.325675 0.710948,-0.373272 0.786823,-0.411443 0.855193,-0.446143 0.912204,-0.475241  0.960762,-0.500115 1.00711,-0.523918 1.04748,-0.544695 1.08665,-0.564878 1.1213,-0.582759  1.15222,-0.598724 1.18286,-0.614559 1.21046,-0.628826 1.23543,-0.641743 1.26053,-0.654734  1.28339,-0.666567 1.30645,-0.678506 1.32755,-0.689439 1.34693,-0.699476 1.36664,-0.709691  1.38481,-0.719106 1.40332,-0.7287 1.42044,-0.737574 1.4363,-0.745794 1.45255,-0.754222  1.46765,-0.76205 1.48169,-0.76933 1.49615,-0.776831 1.50963,-0.783822 1.52352,-0.791025  1.53649,-0.797753 1.54861,-0.80404 1.56115,-0.810543 1.57288,-0.816632 1.58502,-0.822927  1.5964,-0.82883 1.60707,-0.834369 1.61815,-0.840114 1.62855,-0.845512 1.63832,-0.850584  1.64849,-0.85586 1.65806,-0.860825 1.66801,-0.865986 1.67738,-0.870848 1.6862,-0.875429  1.6954,-0.880202 1.70408,-0.884705 1.71226,-0.888951 1.72081,-0.893386 1.72888,-0.897573  1.7373,-0.901942 1.74525,-0.906072 1.75277,-0.909973 1.76063,-0.914053 1.76807,-0.917912  1.77583,-0.921942 1.78318,-0.925758 1.79014,-0.929369 1.79742,-0.933148 1.80432,-0.936728  1.81085,-0.940118 1.8177,-0.943672 1.82419,-0.94704 1.83098,-0.950567 1.83743,-0.953913  1.84354,-0.957085 1.84995,-0.960412 1.85604,-0.96357 1.86181,-0.966565 1.86787,-0.969711  1.87362,-0.972698 1.87966,-0.975831 1.88539,-0.978808 1.89084,-0.981634 1.89656,-0.984605  1.902,-0.987427 1.90771,-0.990389 1.91313,-0.993206 1.91829,-0.995884 1.92371,-0.998698  1.92887,-1.00137 1.93377,-1.00392 1.93893,-1.0066 1.94384,-1.00914 1.94899,-1.01182  1.95391,-1.01437 1.95858,-1.01679 1.96349,-1.01935 1.96818,-1.02178 1.9731,-1.02433  1.97778,-1.02677 1.98225,-1.02908 1.98695,-1.03152 1.99142,-1.03385 1.99569,-1.03606  2.0,-1.0383"
       id="polyline5401" />
    <polyline
       style="font-size:0.07343875px;fill:none;stroke:#000080;stroke-width:0.00871382;font-family:&quot;Courier New&quot;, Courier, Symbol, monospace"
       transform="matrix(186.15503,0,0,-186.15503,465.26337,40.362207)"
       points="  -1.99996,-1.12776E-9 -1.39878,-2.8636E-7 -1.17298,-2.29149E-6 -1.00626,-0.0000106414 -0.891857,-0.000030518  -0.80758,-0.0000663124 -0.742058,-0.000121221 -0.679961,-0.000214676 -0.622584,-0.000363917 -0.571737,-0.000580732  -0.522964,-0.000908727 -0.481461,-0.00132933 -0.446678,-0.00182727 -0.409285,-0.00257004 -0.371838,-0.0036117  -0.339207,-0.00485104 -0.310962,-0.00625309 -0.283677,-0.00797765 -0.255973,-0.0101944 -0.209855,-0.0152384  -0.169222,-0.0215291 -0.134923,-0.0285841 -0.100553,-0.0376148 -0.0657167,-0.0491079 -0.00290038,-0.0766431  0.0543673,-0.10986 0.100722,-0.142143 0.189763,-0.215127 0.315081,-0.33317 0.488538,-0.508488  0.608041,-0.631737 0.707013,-0.734249 0.784822,-0.814951 0.848417,-0.880944 0.907247,-0.942008  0.957206,-0.99387 1.0047,-1.04317 1.046,-1.08605 1.08232,-1.12377 1.11792,-1.16072  1.14963,-1.19365 1.18097,-1.22619 1.20917,-1.25547 1.23467,-1.28194 1.26025,-1.3085  1.28354,-1.33268 1.30481,-1.35477 1.32637,-1.37715 1.34615,-1.39769 1.36624,-1.41855  1.38475,-1.43777 1.40184,-1.45551 1.41932,-1.47366 1.43551,-1.49047 1.45207,-1.50766  1.46745,-1.52364 1.48176,-1.53849 1.49647,-1.55377 1.51019,-1.56801 1.52298,-1.58129  1.5362,-1.59501 1.54855,-1.60784 1.5613,-1.62108 1.57325,-1.63348 1.58444,-1.6451  1.59603,-1.65714 1.60691,-1.66843 1.61712,-1.67903 1.62774,-1.69006 1.63771,-1.70041  1.64807,-1.71117 1.65782,-1.7213 1.667,-1.73082 1.67656,-1.74075 1.68557,-1.7501  1.69494,-1.75983 1.70378,-1.76901 1.71212,-1.77767 1.72082,-1.7867 1.72904,-1.79524  1.73679,-1.80329 1.7449,-1.81171 1.75257,-1.81967 1.76057,-1.82797 1.76814,-1.83584  1.7753,-1.84327 1.78279,-1.85105 1.78989,-1.85841 1.7966,-1.86538 1.80363,-1.87269  1.8103,-1.87961 1.81727,-1.88685 1.82389,-1.89372 1.83016,-1.90023 1.83673,-1.90705  1.84297,-1.91352 1.8495,-1.92031 1.8557,-1.92674 1.86158,-1.93285 1.86775,-1.93926  1.87361,-1.94535 1.87917,-1.95112 1.88502,-1.95719 1.89057,-1.96295 1.8964,-1.969  1.90194,-1.97475 1.9072,-1.98022 1.91273,-1.98596 1.91799,-1.99142 1.92351,-1.99715  1.92876,-2.0026 1.93375,-2.00779 1.939,-2.01324 1.944,-2.01843 1.94875,-2.02336  1.95375,-2.02855 1.95851,-2.0335 1.96352,-2.03869 1.96828,-2.04364 1.97282,-2.04835  1.9776,-2.05331 1.98214,-2.05803 1.98647,-2.06253 1.99104,-2.06726 1.99538,-2.07178  1.99996,-2.07653 2.0,-2.07657"
       id="polyline5403" />
    <path
       style="font-size:0.07343875px;fill:none;stroke:#008000;stroke-width:1.62212181;font-family:&quot;Courier New&quot;, Courier, Symbol, monospace"
       id="polyline5405"
       d="M 92.960766,40.362205 L 204.87344,40.362205 L 246.90723,40.362205 L 277.943,40.362225 L 299.23969,40.362302 L 314.92828,40.362503 L 327.12553,40.362942 L 338.6852,40.363946 L 349.36621,40.36606 L 358.83164,40.369991 L 367.91098,40.377479 L 375.63697,40.389299 L 382.112,40.405997 L 389.0729,40.435566 L 392.76268,40.458614 L 396.04384,40.485124 L 401.72734,40.549332 L 407.37621,40.646132 L 410.07379,40.708543 L 412.82888,40.78633 L 417.5401,40.96134 L 422.32111,41.211422 L 427.26278,41.576942 L 431.30533,41.985881 L 435.42569,42.537447 L 439.1311,43.181501 L 442.3676,43.885803 L 448.46594,45.664826 L 451.71861,46.906675 L 454.61571,48.213737 L 464.72345,54.491896 L 469.56841,58.52718 L 474.4853,63.294821 L 482.68764,72.587873 L 498.75936,94.207916 L 523.91728,131.9797 L 557.06739,183.36354 L 579.75652,218.68142 L 596.84314,245.28913 L 611.76942,268.53616 L 623.92776,287.46999 L 635.1142,304.89224 L 644.60046,319.66735 L 652.78291,332.41152 L 660.66471,344.68659 L 667.59154,355.47427 L 673.73466,365.04264 L 679.79959,374.48814 L 685.23718,382.95449 L 690.64126,391.37428 L 695.52782,398.98243 L 699.9639,405.8925 L 704.43161,412.85098 L 708.51213,419.20632 L 712.63362,425.62308 L 716.41629,431.51302 L 719.89366,436.932 L 723.43805,442.44963 L 726.7088,447.5447 L 729.73382,452.25627 L 732.83516,457.087 L 735.71311,461.56776 L 738.66181,466.16019 L 741.40574,470.43431 L 743.95978,474.41058 L 746.59014,478.50971 L 749.04554,482.33334 L 751.33897,485.90379 L 753.71058,489.59711 L 755.92955,493.05215 L 758.22298,496.62632 L 760.37307,499.9734 L 762.38726,503.11197 L 764.47778,506.36781 L 766.44172,509.42448 L 768.47639,512.5947 L 770.39007,515.57505 L 772.19018,518.37668 L 774.06104,521.29186 L 775.82207,524.03579" />
    <path
       style="font-size:0.07343875px;fill:none;stroke:#d45500;stroke-width:1.62212181;font-family:&quot;Courier New&quot;, Courier, Symbol, monospace"
       id="polyline5407"
       d="M 92.960766,40.362205 L 204.87344,40.362205 L 246.90723,40.362205 L 277.943,40.362205 L 299.23969,40.362205 L 314.92828,40.362216 L 327.12553,40.362225 L 338.6852,40.362282 L 349.36621,40.362426 L 358.83164,40.362761 L 367.91098,40.363582 L 375.63697,40.36516 L 382.112,40.36781 L 389.0729,40.373357 L 392.76268,40.378272 L 396.04384,40.38444 L 401.72734,40.401205 L 407.37621,40.430364 L 410.07379,40.451173 L 412.82888,40.478974 L 417.5401,40.548022 L 420.04798,40.600065 L 422.32111,40.659645 L 424.74392,40.739499 L 427.26278,40.845088 L 429.37174,40.955573 L 431.60522,41.09978 L 435.51429,41.439307 L 439.14636,41.888555 L 442.3676,42.434039 L 445.37233,43.106294 L 448.09519,43.886979 L 450.98022,44.93255 L 453.97917,46.305522 L 459.76195,49.96406 L 464.72345,54.355035 L 474.61234,66.7843 L 482.83914,80.255599 L 498.88837,110.92687 L 523.91728,162.22452 L 555.67086,228.10328 L 579.64595,277.88672 L 597.50826,314.97811 L 611.62068,344.2845 L 624.34046,370.69804 L 634.94703,392.72204 L 643.98076,411.48088 L 652.6042,429.38899 L 660.11742,444.98878 L 667.40538,460.12505 L 673.8538,473.51705 L 679.60784,485.46261 L 685.31163,497.30579 L 690.44579,507.96875 L 695.56692,518.60379 L 697.97379,523.60274" />
    <path
       style="font-size:0.07343875px;fill:none;stroke:#800080;stroke-width:1.62212181;font-family:&quot;Courier New&quot;, Courier, Symbol, monospace"
       id="polyline5409"
       d="M 92.960766,40.362205 L 204.87344,40.362205 L 246.90723,40.362205 L 277.943,40.362205 L 299.23969,40.362205 L 314.92828,40.362205 L 327.12553,40.362205 L 338.6852,40.362205 L 349.36621,40.362216 L 358.83164,40.362244 L 367.91098,40.36233 L 375.63697,40.362521 L 382.112,40.362923 L 389.0729,40.363898 L 392.76268,40.364884 L 396.04384,40.366222 L 401.72734,40.370306 L 407.37621,40.378501 L 410.07379,40.384957 L 412.82888,40.394186 L 417.5401,40.419442 L 420.04798,40.440224 L 422.32111,40.46549 L 424.74392,40.501467 L 427.26278,40.552144 L 429.37174,40.608423 L 431.60522,40.686164 L 435.51429,40.885092 L 439.14636,41.17598 L 442.3676,41.563085 L 445.37233,42.082012 L 448.09519,42.733037 L 450.98022,43.673028 L 453.97917,45.005357 L 456.84784,46.708532 L 459.76195,48.960003 L 464.72345,54.219082 L 470.01641,61.97089 L 474.54262,70.232454 L 483.86218,90.643418 L 498.34033,126.56837 L 523.91728,192.62586 L 556.29839,276.66368 L 578.59194,334.52997 L 597.04289,382.42394 L 611.54623,420.07007 L 623.39945,450.83778 L 634.36064,479.28972 L 643.66894,503.45263 L 651.42854,523.5934" />
    <line
       style="font-size:0.07343875px;fill:none;stroke:#000000;stroke-width:2;font-family:&quot;Courier New&quot;, Courier, Symbol, monospace"
       id="line5411"
       x1="93.453308"
       x2="93.453308"
       y1="523.56677"
       y2="515.56677" />
    <line
       style="font-size:0.07343875px;fill:none;stroke:#000000;stroke-width:2;font-family:&quot;Courier New&quot;, Courier, Symbol, monospace"
       id="line5415"
       x1="278.60834"
       x2="278.60834"
       y1="523.56677"
       y2="515.56677" />
    <line
       style="font-size:0.07343875px;fill:none;stroke:#000000;stroke-width:2;font-family:&quot;Courier New&quot;, Courier, Symbol, monospace"
       id="line5419"
       x1="465.26334"
       x2="465.26334"
       y1="523.56677"
       y2="515.56677" />
    <line
       style="font-size:0.07343875px;fill:none;stroke:#000000;stroke-width:2;font-family:&quot;Courier New&quot;, Courier, Symbol, monospace"
       id="line5423"
       x1="651.4184"
       x2="651.4184"
       y1="523.56677"
       y2="515.56677" />
    <line
       style="font-size:0.07343875px;fill:none;stroke:#000000;stroke-width:2;font-family:&quot;Courier New&quot;, Courier, Symbol, monospace"
       id="line5431"
       x1="148.99155"
       x2="148.99155"
       y1="523.56677"
       y2="518.76678" />
    <line
       style="font-size:0.07343875px;fill:none;stroke:#000000;stroke-width:2;font-family:&quot;Courier New&quot;, Courier, Symbol, monospace"
       id="line5433"
       x1="181.77158"
       x2="181.77158"
       y1="523.56677"
       y2="518.76678" />
    <line
       style="font-size:0.07343875px;fill:none;stroke:#000000;stroke-width:2;font-family:&quot;Courier New&quot;, Courier, Symbol, monospace"
       id="line5435"
       x1="205.02979"
       x2="205.02979"
       y1="523.56677"
       y2="518.76678" />
    <line
       style="font-size:0.07343875px;fill:none;stroke:#000000;stroke-width:2;font-family:&quot;Courier New&quot;, Courier, Symbol, monospace"
       id="line5437"
       x1="223.07008"
       x2="223.07008"
       y1="523.56677"
       y2="518.76678" />
    <line
       style="font-size:0.07343875px;fill:none;stroke:#000000;stroke-width:2;font-family:&quot;Courier New&quot;, Courier, Symbol, monospace"
       id="line5439"
       x1="237.80983"
       x2="237.80983"
       y1="523.56677"
       y2="518.76678" />
    <line
       style="font-size:0.07343875px;fill:none;stroke:#000000;stroke-width:2;font-family:&quot;Courier New&quot;, Courier, Symbol, monospace"
       id="line5441"
       x1="250.27292"
       x2="250.27292"
       y1="523.56677"
       y2="518.76678" />
    <line
       style="font-size:0.07343875px;fill:none;stroke:#000000;stroke-width:2;font-family:&quot;Courier New&quot;, Courier, Symbol, monospace"
       id="line5443"
       x1="261.06805"
       x2="261.06805"
       y1="523.56677"
       y2="518.76678" />
    <line
       style="font-size:0.07343875px;fill:none;stroke:#000000;stroke-width:2;font-family:&quot;Courier New&quot;, Courier, Symbol, monospace"
       id="line5445"
       x1="270.58984"
       x2="270.58984"
       y1="523.56677"
       y2="518.76678" />
    <line
       style="font-size:0.07343875px;fill:none;stroke:#000000;stroke-width:2;font-family:&quot;Courier New&quot;, Courier, Symbol, monospace"
       id="line5447"
       x1="335.14658"
       x2="335.14658"
       y1="523.56677"
       y2="518.76678" />
    <line
       style="font-size:0.07343875px;fill:none;stroke:#000000;stroke-width:2;font-family:&quot;Courier New&quot;, Courier, Symbol, monospace"
       id="line5449"
       x1="367.92679"
       x2="367.92679"
       y1="523.56677"
       y2="518.76678" />
    <line
       style="font-size:0.07343875px;fill:none;stroke:#000000;stroke-width:2;font-family:&quot;Courier New&quot;, Courier, Symbol, monospace"
       id="line5451"
       x1="391.18481"
       x2="391.18481"
       y1="523.56677"
       y2="518.76678" />
    <line
       style="font-size:0.07343875px;fill:none;stroke:#000000;stroke-width:2;font-family:&quot;Courier New&quot;, Courier, Symbol, monospace"
       id="line5453"
       x1="409.2251"
       x2="409.2251"
       y1="523.56677"
       y2="518.76678" />
    <line
       style="font-size:0.07343875px;fill:none;stroke:#000000;stroke-width:2;font-family:&quot;Courier New&quot;, Courier, Symbol, monospace"
       id="line5455"
       x1="423.96506"
       x2="423.96506"
       y1="523.56677"
       y2="518.76678" />
    <line
       style="font-size:0.07343875px;fill:none;stroke:#000000;stroke-width:2;font-family:&quot;Courier New&quot;, Courier, Symbol, monospace"
       id="line5457"
       x1="436.42758"
       x2="436.42758"
       y1="523.56677"
       y2="518.76678" />
    <line
       style="font-size:0.07343875px;fill:none;stroke:#000000;stroke-width:2;font-family:&quot;Courier New&quot;, Courier, Symbol, monospace"
       id="line5459"
       x1="447.22305"
       x2="447.22305"
       y1="523.56677"
       y2="518.76678" />
    <line
       style="font-size:0.07343875px;fill:none;stroke:#000000;stroke-width:2;font-family:&quot;Courier New&quot;, Courier, Symbol, monospace"
       id="line5461"
       x1="456.74536"
       x2="456.74536"
       y1="523.56677"
       y2="518.76678" />
    <line
       style="font-size:0.07343875px;fill:none;stroke:#000000;stroke-width:2;font-family:&quot;Courier New&quot;, Courier, Symbol, monospace"
       id="line5463"
       x1="521.30164"
       x2="521.30164"
       y1="523.56677"
       y2="518.76678" />
    <line
       style="font-size:0.07343875px;fill:none;stroke:#000000;stroke-width:2;font-family:&quot;Courier New&quot;, Courier, Symbol, monospace"
       id="line5465"
       x1="554.08185"
       x2="554.08185"
       y1="523.56677"
       y2="518.76678" />
    <line
       style="font-size:0.07343875px;fill:none;stroke:#000000;stroke-width:2;font-family:&quot;Courier New&quot;, Courier, Symbol, monospace"
       id="line5467"
       x1="577.33984"
       x2="577.33984"
       y1="523.56677"
       y2="518.76678" />
    <line
       style="font-size:0.07343875px;fill:none;stroke:#000000;stroke-width:2;font-family:&quot;Courier New&quot;, Courier, Symbol, monospace"
       id="line5469"
       x1="595.38013"
       x2="595.38013"
       y1="523.56677"
       y2="518.76678" />
    <line
       style="font-size:0.07343875px;fill:none;stroke:#000000;stroke-width:2;font-family:&quot;Courier New&quot;, Courier, Symbol, monospace"
       id="line5471"
       x1="610.12006"
       x2="610.12006"
       y1="523.56677"
       y2="518.76678" />
    <line
       style="font-size:0.07343875px;fill:none;stroke:#000000;stroke-width:2;font-family:&quot;Courier New&quot;, Courier, Symbol, monospace"
       id="line5473"
       x1="622.58258"
       x2="622.58258"
       y1="523.56677"
       y2="518.76678" />
    <line
       style="font-size:0.07343875px;fill:none;stroke:#000000;stroke-width:2;font-family:&quot;Courier New&quot;, Courier, Symbol, monospace"
       id="line5475"
       x1="633.37811"
       x2="633.37811"
       y1="523.56677"
       y2="518.76678" />
    <line
       style="font-size:0.07343875px;fill:none;stroke:#000000;stroke-width:2;font-family:&quot;Courier New&quot;, Courier, Symbol, monospace"
       id="line5477"
       x1="642.90051"
       x2="642.90051"
       y1="523.56677"
       y2="518.76678" />
    <line
       style="font-size:0.07343875px;fill:none;stroke:#000000;stroke-width:2;font-family:&quot;Courier New&quot;, Courier, Symbol, monospace"
       id="line5479"
       x1="707.4566"
       x2="707.4566"
       y1="523.56677"
       y2="518.76678" />
    <line
       style="font-size:0.07343875px;fill:none;stroke:#000000;stroke-width:2;font-family:&quot;Courier New&quot;, Courier, Symbol, monospace"
       id="line5481"
       x1="740.23669"
       x2="740.23669"
       y1="523.56677"
       y2="518.76678" />
    <line
       style="font-size:0.07343875px;fill:none;stroke:#000000;stroke-width:2;font-family:&quot;Courier New&quot;, Courier, Symbol, monospace"
       id="line5483"
       x1="763.49487"
       x2="763.49487"
       y1="523.56677"
       y2="518.76678" />
    <line
       style="font-size:0.07343875px;fill:none;stroke:#000000;stroke-width:2;font-family:&quot;Courier New&quot;, Courier, Symbol, monospace"
       id="line5485"
       x1="781.5351"
       x2="781.5351"
       y1="523.56677"
       y2="518.76678" />
    <line
       style="font-size:0.07343875px;fill:none;stroke:#000000;stroke-width:2;font-family:&quot;Courier New&quot;, Courier, Symbol, monospace"
       id="line5487"
       x1="796.27496"
       x2="796.27496"
       y1="523.56677"
       y2="518.76678" />
    <line
       style="font-size:0.07343875px;fill:none;stroke:#000000;stroke-width:2;font-family:&quot;Courier New&quot;, Courier, Symbol, monospace"
       id="line5489"
       x1="808.73804"
       x2="808.73804"
       y1="523.56677"
       y2="518.76678" />
    <line
       style="font-size:0.07343875px;fill:none;stroke:#000000;stroke-width:2;font-family:&quot;Courier New&quot;, Courier, Symbol, monospace"
       id="line5491"
       x1="819.53314"
       x2="819.53314"
       y1="523.56677"
       y2="518.76678" />
    <line
       style="font-size:0.07343875px;fill:none;stroke:#000000;stroke-width:2;font-family:&quot;Courier New&quot;, Courier, Symbol, monospace"
       id="line5493"
       x1="829.05499"
       x2="829.05499"
       y1="523.56677"
       y2="518.76678" />
    <line
       style="font-size:0.07343875px;fill:none;stroke:#000000;stroke-width:2;font-family:&quot;Courier New&quot;, Courier, Symbol, monospace"
       id="line5497"
       x1="74.37648"
       x2="82.37648"
       y1="426.58243"
       y2="426.58243" />
    <line
       style="font-size:0.07343875px;fill:none;stroke:#000000;stroke-width:2;font-family:&quot;Courier New&quot;, Courier, Symbol, monospace"
       id="line5501"
       x1="74.34523"
       x2="82.34523"
       y1="330.47311"
       y2="330.47311" />
    <line
       style="font-size:0.07343875px;fill:none;stroke:#000000;stroke-width:2;font-family:&quot;Courier New&quot;, Courier, Symbol, monospace"
       id="line5505"
       x1="74.34523"
       x2="82.34523"
       y1="233.64511"
       y2="233.64511" />
    <line
       style="font-size:0.07343875px;fill:none;stroke:#000000;stroke-width:2;font-family:&quot;Courier New&quot;, Courier, Symbol, monospace"
       id="line5509"
       x1="74.34523"
       x2="82.34523"
       y1="136.50328"
       y2="136.50328" />
    <line
       style="font-size:0.07343875px;fill:none;stroke:#000000;stroke-width:2;font-family:&quot;Courier New&quot;, Courier, Symbol, monospace"
       id="line5513"
       x1="74.34523"
       x2="82.34523"
       y1="40.362198"
       y2="40.362198" />
    <line
       style="font-size:0.07343875px;fill:none;stroke:#000000;stroke-width:2;font-family:&quot;Courier New&quot;, Courier, Symbol, monospace"
       id="line5517"
       x1="74.34523"
       x2="79.145264"
       y1="499.40753"
       y2="499.40753" />
    <line
       style="font-size:0.07343875px;fill:none;stroke:#000000;stroke-width:2;font-family:&quot;Courier New&quot;, Courier, Symbol, monospace"
       id="line5519"
       x1="74.34523"
       x2="79.145264"
       y1="475.2464"
       y2="475.2464" />
    <line
       style="font-size:0.07343875px;fill:none;stroke:#000000;stroke-width:2;font-family:&quot;Courier New&quot;, Courier, Symbol, monospace"
       id="line5521"
       x1="74.34523"
       x2="79.145264"
       y1="451.08722"
       y2="451.08722" />
    <line
       style="font-size:0.07343875px;fill:none;stroke:#000000;stroke-width:2;font-family:&quot;Courier New&quot;, Courier, Symbol, monospace"
       id="line5523"
       x1="74.34523"
       x2="79.145264"
       y1="402.76694"
       y2="402.76694" />
    <line
       style="font-size:0.07343875px;fill:none;stroke:#000000;stroke-width:2;font-family:&quot;Courier New&quot;, Courier, Symbol, monospace"
       id="line5525"
       x1="74.34523"
       x2="79.145264"
       y1="378.6059"
       y2="378.6059" />
    <line
       style="font-size:0.07343875px;fill:none;stroke:#000000;stroke-width:2;font-family:&quot;Courier New&quot;, Courier, Symbol, monospace"
       id="line5527"
       x1="74.34523"
       x2="79.145264"
       y1="354.44482"
       y2="354.44482" />
    <line
       style="font-size:0.07343875px;fill:none;stroke:#000000;stroke-width:2;font-family:&quot;Courier New&quot;, Courier, Symbol, monospace"
       id="line5529"
       x1="74.34523"
       x2="79.145264"
       y1="306.12454"
       y2="306.12454" />
    <line
       style="font-size:0.07343875px;fill:none;stroke:#000000;stroke-width:2;font-family:&quot;Courier New&quot;, Courier, Symbol, monospace"
       id="line5531"
       x1="74.34523"
       x2="79.145264"
       y1="281.96536"
       y2="281.96536" />
    <line
       style="font-size:0.07343875px;fill:none;stroke:#000000;stroke-width:2;font-family:&quot;Courier New&quot;, Courier, Symbol, monospace"
       id="line5533"
       x1="74.34523"
       x2="79.145264"
       y1="257.80426"
       y2="257.80426" />
    <line
       style="font-size:0.07343875px;fill:none;stroke:#000000;stroke-width:2;font-family:&quot;Courier New&quot;, Courier, Symbol, monospace"
       id="line5535"
       x1="74.34523"
       x2="79.145264"
       y1="209.48404"
       y2="209.48404" />
    <line
       style="font-size:0.07343875px;fill:none;stroke:#000000;stroke-width:2;font-family:&quot;Courier New&quot;, Courier, Symbol, monospace"
       id="line5537"
       x1="74.34523"
       x2="79.145264"
       y1="185.32373"
       y2="185.32373" />
    <line
       style="font-size:0.07343875px;fill:none;stroke:#000000;stroke-width:2;font-family:&quot;Courier New&quot;, Courier, Symbol, monospace"
       id="line5539"
       x1="74.34523"
       x2="79.145264"
       y1="161.16359"
       y2="161.16359" />
    <line
       style="font-size:0.07343875px;fill:none;stroke:#000000;stroke-width:2;font-family:&quot;Courier New&quot;, Courier, Symbol, monospace"
       id="line5541"
       x1="74.34523"
       x2="79.145264"
       y1="112.84298"
       y2="112.84298" />
    <line
       style="font-size:0.07343875px;fill:none;stroke:#000000;stroke-width:2;font-family:&quot;Courier New&quot;, Courier, Symbol, monospace"
       id="line5543"
       x1="74.34523"
       x2="79.145264"
       y1="88.68264"
       y2="88.68264" />
    <line
       style="font-size:0.07343875px;fill:none;stroke:#000000;stroke-width:2;font-family:&quot;Courier New&quot;, Courier, Symbol, monospace"
       id="line5545"
       x1="74.34523"
       x2="79.145264"
       y1="64.522522"
       y2="64.522522" />
    <g
       id="g5904"
       transform="matrix(0,-0.7,0.7,0,-151.544,517.40685)">
      <g
         style="font-style:normal;font-variant:normal;font-weight:normal;font-stretch:normal;letter-spacing:normal;word-spacing:normal;text-anchor:start;fill:none;fill-opacity:1;fill-rule:evenodd;stroke:#000000;stroke-width:1.42857134;stroke-linecap:butt;stroke-linejoin:miter;stroke-miterlimit:10.43299961;stroke-dasharray:none;stroke-dashoffset:0;stroke-opacity:1"
         id="g5906"
         xml:space="preserve"
         transform="matrix(0.8571429,0,0,-0.8571429,-150,600)"><path
           style="fill:#000000;stroke-width:0"
           id="path5908"
           d="M 464.92,411.73 L 464.73,411.42 L 464.54,411.13 L 464.36,410.86 L 464.17,410.6 L 463.99,410.35 L 463.8,410.12 L 463.61,409.89 L 463.43,409.69 L 463.24,409.49 L 463.06,409.31 L 462.87,409.14 L 462.68,408.98 L 462.49,408.83 L 462.31,408.69 L 462.12,408.56 L 461.93,408.44 L 461.74,408.33 L 461.55,408.23 L 461.36,408.14 L 461.17,408.05 L 460.97,407.98 L 460.78,407.91 L 460.59,407.85 L 460.39,407.79 L 460.19,407.74 L 460,407.7 L 459.8,407.66 L 459.6,407.63 L 459.2,407.58 L 458.79,407.54 C 458.19,407.5 457.74,407.5 457.74,406.55 C 457.74,406.25 457.99,406 458.39,406 C 459.73,406 461.28,406.15 462.68,406.15 C 464.32,406.15 466.06,406 467.66,406 C 467.96,406 468.6,406 468.6,406.95 C 468.6,407.5 468.16,407.54 467.8,407.54 C 466.66,407.64 465.46,408.04 465.46,409.29 C 465.46,409.89 465.76,410.43 466.16,411.13 C 466.51,411.73 466.56,411.73 469.95,417.51 L 482.45,417.51 L 482.3,419.05 L 470.89,419.05 L 480.71,435.49 L 482.3,419.05 L 482.45,417.51 C 482.55,416.46 483.25,409.69 483.25,409.19 C 483.25,407.7 480.66,407.54 479.66,407.54 C 478.96,407.54 478.46,407.54 478.46,406.55 C 478.46,406 479.06,406 479.16,406 C 481.21,406 483.35,406.15 485.39,406.15 C 486.64,406.15 489.77,406 491.02,406 C 491.32,406 491.91,406 491.91,407 C 491.91,407.54 491.42,407.54 490.77,407.54 C 487.68,407.54 487.68,407.89 487.53,409.34 L 484.49,440.47 C 484.39,441.47 484.39,441.67 483.55,441.67 C 482.75,441.67 482.55,441.32 482.25,440.82 L 464.92,411.73 z " /><path
           style="fill:#000000;stroke-width:0"
           id="path5910"
           d="M 517.49,394.04 L 517.49,394.07 L 517.49,394.1 L 517.48,394.11 L 517.48,394.13 L 517.48,394.14 L 517.47,394.16 L 517.47,394.18 L 517.46,394.19 L 517.45,394.21 L 517.44,394.23 L 517.43,394.26 L 517.42,394.28 L 517.4,394.3 L 517.38,394.33 L 517.36,394.36 L 517.34,394.39 L 517.31,394.42 L 517.28,394.46 L 517.27,394.48 L 517.25,394.5 L 517.23,394.52 L 517.21,394.54 L 517.19,394.56 L 517.17,394.59 L 517.15,394.61 L 517.13,394.63 L 517.11,394.66 L 517.08,394.68 L 517.06,394.71 L 517.03,394.74 L 517.01,394.77 L 516.98,394.8 L 516.95,394.83 L 516.92,394.86 L 516.89,394.89 L 516.86,394.92 L 516.82,394.96 L 516.79,394.99 L 516.75,395.03 L 516.72,395.06 L 516.68,395.1 L 516.64,395.14 C 510.41,401.42 508.82,410.83 508.82,418.45 C 508.82,427.12 510.71,435.79 516.84,442.02 C 517.49,442.61 517.49,442.71 517.49,442.86 C 517.49,443.21 517.29,443.36 516.99,443.36 C 516.49,443.36 512.01,439.97 509.07,433.64 C 506.53,428.17 505.93,422.64 505.93,418.45 C 505.93,414.57 506.48,408.54 509.22,402.91 C 512.21,396.79 516.49,393.55 516.99,393.55 C 517.29,393.55 517.49,393.7 517.49,394.04 z " /><path
           style="fill:#000000;stroke-width:0"
           id="path5912"
           d="M 534.15,410.09 L 534.2,409.8 L 534.25,409.52 L 534.31,409.25 L 534.38,408.99 L 534.45,408.73 L 534.53,408.49 L 534.62,408.26 L 534.71,408.04 L 534.82,407.82 L 534.92,407.62 L 535.04,407.43 L 535.16,407.24 L 535.29,407.06 L 535.42,406.9 L 535.56,406.74 L 535.71,406.59 L 535.86,406.45 L 536.02,406.32 L 536.18,406.2 L 536.35,406.09 L 536.53,405.99 L 536.71,405.89 L 536.9,405.81 L 537.09,405.74 L 537.29,405.67 L 537.5,405.61 L 537.71,405.56 L 537.92,405.52 L 538.14,405.49 L 538.37,405.47 L 538.6,405.46 L 538.83,405.45 C 541.77,405.45 544.46,407.34 546.45,410.09 C 550.19,415.27 551.14,422.79 551.14,424.48 C 551.14,428.02 549.29,428.02 549,428.02 C 547.75,428.02 546.5,426.72 546.5,425.63 C 546.5,424.98 546.8,424.68 547.25,424.28 C 548.84,422.64 549,421.04 549,419.95 C 549,415.71 544.76,409.04 539.53,409.04 C 539.08,409.04 537.69,409.04 536.79,410.18 C 536.19,410.98 535.79,411.93 535.79,412.93 C 535.79,413.07 535.79,413.17 536.09,413.72 C 537.04,415.96 537.74,418.7 537.74,419.35 C 537.74,419.95 537.39,420.5 536.69,420.5 C 536.15,420.5 535.7,420.05 535.3,419.25 C 535.2,419 534.6,416.81 534.25,414.22 C 534.15,413.32 534.15,413.22 533.8,412.88 C 531.61,409.84 529.32,409.04 527.63,409.04 C 524.34,409.04 523.24,411.78 523.24,414.72 C 523.24,418.45 525.09,422.59 527.43,425.93 C 527.93,426.62 527.93,426.72 527.93,426.87 C 527.93,427.27 527.63,427.47 527.33,427.47 C 526.53,427.47 524.24,423.09 523.54,421.49 C 521.7,417.06 521.65,412.97 521.65,412.53 C 521.65,408.54 523.14,405.45 526.93,405.45 C 530.16,405.45 532.56,407.74 534.15,410.09 z " /><path
           style="fill:#000000;stroke-width:0"
           id="path5914"
           d="M 567.4,418.45 L 567.39,418.82 L 567.39,419.21 L 567.38,419.6 L 567.37,420.01 L 567.33,420.85 L 567.27,421.73 L 567.18,422.65 L 567.08,423.59 L 566.94,424.57 L 566.78,425.57 L 566.58,426.59 L 566.35,427.63 L 566.08,428.68 L 565.78,429.74 L 565.43,430.8 L 565.04,431.87 L 564.82,432.4 L 564.6,432.94 L 564.36,433.47 L 564.11,434 C 561.12,440.12 556.84,443.36 556.34,443.36 C 556.04,443.36 555.84,443.16 555.84,442.86 C 555.84,442.71 555.84,442.61 556.78,441.71 C 561.67,436.79 564.51,428.86 564.51,418.45 C 564.51,409.93 562.66,401.17 556.49,394.89 C 555.84,394.29 555.84,394.2 555.84,394.04 C 555.84,393.75 556.04,393.55 556.34,393.55 C 556.84,393.55 561.32,396.93 564.26,403.26 C 566.8,408.74 567.4,414.27 567.4,418.45 z " /><path
           style="fill:#000000;stroke-width:0"
           id="path5916"
           d="M 602.87,441.47 L 602.88,441.5 L 602.89,441.53 L 602.9,441.56 L 602.91,441.58 L 602.92,441.61 L 602.93,441.64 L 602.95,441.69 L 602.97,441.74 L 602.98,441.79 L 603,441.83 L 603.01,441.87 L 603.02,441.91 L 603.04,441.95 L 603.05,441.99 L 603.06,442.02 L 603.06,442.05 L 603.07,442.08 L 603.08,442.11 L 603.09,442.14 L 603.09,442.16 L 603.1,442.19 L 603.1,442.21 L 603.1,442.23 L 603.11,442.25 L 603.11,442.26 L 603.11,442.28 L 603.11,442.29 L 603.11,442.31 L 603.12,442.32 L 603.12,442.33 L 603.12,442.34 L 603.12,442.34 L 603.12,442.35 L 603.12,442.36 L 603.12,442.36 C 603.12,442.91 602.67,443.36 602.12,443.36 C 601.77,443.36 601.42,443.21 601.27,442.91 L 583.99,395.44 C 583.74,394.79 583.74,394.59 583.74,394.54 C 583.74,394 584.19,393.55 584.73,393.55 C 585.38,393.55 585.53,393.89 585.83,394.74 L 602.87,441.47 z " /><path
           style="fill:#000000;stroke-width:0"
           id="path5918"
           d="M 624.93,408.74 L 624.93,405.45 L 632.25,406 L 632.25,407.54 C 628.77,407.54 628.37,407.89 628.37,410.33 L 628.37,440.57 L 621.19,440.02 L 621.19,438.48 C 624.68,438.48 625.08,438.13 625.08,435.69 L 625.08,424.93 C 623.63,426.72 621.49,428.02 618.8,428.02 L 619,426.92 C 620.75,426.92 622.84,426.18 624.38,423.93 C 624.93,423.09 624.93,422.98 624.93,422.09 L 624.93,422.09 L 624.93,411.88 C 624.93,410.98 624.93,410.88 624.38,410.04 C 622.89,407.64 620.65,406.55 618.5,406.55 C 616.26,406.55 614.47,407.84 613.27,409.73 C 611.98,411.78 611.83,414.62 611.83,416.66 C 611.83,418.5 611.93,421.49 613.37,423.73 C 614.42,425.28 616.31,426.92 619,426.92 L 618.8,428.02 C 612.93,428.02 607.7,423.14 607.7,416.71 C 607.7,410.38 612.57,405.45 618.25,405.45 C 621.44,405.45 623.68,407.14 624.93,408.74 z " /><path
           style="fill:#000000;stroke-width:0"
           id="path5920"
           d="M 656.81,423.79 L 657.26,423.88 L 657.7,423.99 L 658.13,424.11 L 658.56,424.24 L 658.97,424.39 L 659.37,424.54 L 659.76,424.71 L 660.14,424.89 L 660.51,425.08 L 660.87,425.27 L 661.22,425.48 L 661.55,425.7 L 661.87,425.93 L 662.18,426.17 L 662.48,426.41 L 662.76,426.67 L 663.03,426.93 L 663.28,427.2 L 663.52,427.48 L 663.74,427.76 L 663.95,428.05 L 664.14,428.35 L 664.31,428.65 L 664.47,428.96 L 664.61,429.28 L 664.73,429.6 L 664.84,429.92 L 664.92,430.25 L 664.99,430.58 L 665.04,430.92 L 665.07,431.26 L 665.08,431.61 C 665.08,435.94 660.5,440.02 654.02,440.02 L 653.68,438.48 C 658.51,438.48 660.25,434.24 660.25,431.61 C 660.25,428.41 657.81,424.23 652.28,424.23 L 645.06,424.23 L 645.06,423.14 L 654.42,423.14 C 659.35,423.14 661.45,418.5 661.45,415.16 C 661.45,411.63 658.85,407.54 653.73,407.54 L 653.73,407.54 L 647.5,407.54 C 645.16,407.54 645.06,407.89 645.06,409.54 L 645.06,423.14 L 645.06,424.23 L 645.06,436.48 C 645.06,438.13 645.16,438.48 647.5,438.48 L 653.68,438.48 L 654.02,440.02 L 635.79,440.02 L 635.79,438.48 L 636.99,438.48 C 640.82,438.48 640.93,437.93 640.93,436.14 L 640.93,409.89 C 640.93,408.09 640.82,407.54 636.99,407.54 L 635.79,407.54 L 635.79,406 L 655.32,406 C 661.95,406 666.43,410.43 666.43,415.12 C 666.43,419.45 662.34,423.18 656.81,423.79 z " /></g>    </g>
    <g
       id="g6352"
       transform="matrix(0.5,0,0,0.5,-45.74,418.52858)">
      <g
         style="font-style:normal;font-variant:normal;font-weight:normal;font-stretch:normal;letter-spacing:normal;word-spacing:normal;text-anchor:start;fill:none;fill-opacity:1;fill-rule:evenodd;stroke:#000000;stroke-width:2;stroke-linecap:butt;stroke-linejoin:miter;stroke-miterlimit:10.43299961;stroke-dasharray:none;stroke-dashoffset:0;stroke-opacity:1"
         id="g6354"
         xml:space="preserve"
         transform="matrix(0.8571429,0,0,-0.8571429,-150,600)"><path
           style="fill:#000000;stroke-width:0"
           id="path6356"
           d="M 478.91,421.94 L 478.91,422.69 L 478.9,423.43 L 478.88,424.18 L 478.85,424.92 L 478.8,425.67 L 478.74,426.41 L 478.67,427.15 L 478.57,427.88 L 478.46,428.61 L 478.32,429.34 L 478.16,430.06 L 477.97,430.78 L 477.75,431.49 L 477.51,432.2 L 477.23,432.9 L 477.08,433.25 L 476.92,433.6 C 474.63,438.38 470.55,439.18 468.45,439.18 C 465.46,439.18 461.83,437.88 459.79,433.25 C 458.19,429.81 457.94,425.93 457.94,421.94 C 457.94,418.2 458.14,413.72 460.18,409.93 C 462.33,405.9 465.96,404.9 468.4,404.9 L 468.4,406 C 466.46,406 463.52,407.25 462.63,412.03 C 462.08,415.02 462.08,419.6 462.08,422.54 C 462.08,425.73 462.08,429.01 462.48,431.7 C 463.42,437.63 467.16,438.08 468.4,438.08 C 470.05,438.08 473.34,437.18 474.28,432.25 C 474.78,429.46 474.78,425.68 474.78,422.54 C 474.78,418.8 474.78,415.41 474.23,412.23 C 473.48,407.5 470.64,406 468.4,406 L 468.4,406 L 468.4,404.9 C 471.09,404.9 474.88,405.95 477.07,410.68 C 478.66,414.12 478.91,418 478.91,421.94 z " /><path
           style="fill:#000000;stroke-width:0"
           id="path6358"
           d="M 489.56,408.64 L 489.56,408.78 L 489.55,408.91 L 489.53,409.04 L 489.51,409.17 L 489.48,409.3 L 489.44,409.42 L 489.4,409.54 L 489.35,409.66 L 489.3,409.78 L 489.24,409.89 L 489.18,410 L 489.11,410.11 L 489.03,410.21 L 488.96,410.31 L 488.87,410.41 L 488.78,410.5 L 488.69,410.59 L 488.6,410.67 L 488.5,410.75 L 488.39,410.83 L 488.29,410.9 L 488.18,410.96 L 488.06,411.02 L 487.95,411.07 L 487.83,411.12 L 487.7,411.16 L 487.58,411.2 L 487.45,411.23 L 487.32,411.25 L 487.19,411.27 L 487.06,411.28 L 486.93,411.28 C 485.48,411.28 484.29,410.09 484.29,408.64 C 484.29,407.2 485.48,406 486.93,406 C 488.37,406 489.56,407.2 489.56,408.64 z " /><path
           style="fill:#000000;stroke-width:0"
           id="path6360"
           d="M 516.91,421.94 L 516.91,422.69 L 516.9,423.43 L 516.88,424.18 L 516.85,424.92 L 516.8,425.67 L 516.74,426.41 L 516.67,427.15 L 516.57,427.88 L 516.46,428.61 L 516.32,429.34 L 516.16,430.06 L 515.97,430.78 L 515.75,431.49 L 515.51,432.2 L 515.23,432.9 L 515.08,433.25 L 514.92,433.6 C 512.63,438.38 508.55,439.18 506.45,439.18 C 503.46,439.18 499.83,437.88 497.79,433.25 C 496.19,429.81 495.94,425.93 495.94,421.94 C 495.94,418.2 496.14,413.72 498.18,409.93 C 500.33,405.9 503.96,404.9 506.4,404.9 L 506.4,406 C 504.46,406 501.52,407.25 500.63,412.03 C 500.08,415.02 500.08,419.6 500.08,422.54 C 500.08,425.73 500.08,429.01 500.48,431.7 C 501.42,437.63 505.16,438.08 506.4,438.08 C 508.05,438.08 511.34,437.18 512.28,432.25 C 512.78,429.46 512.78,425.68 512.78,422.54 C 512.78,418.8 512.78,415.41 512.23,412.23 C 511.48,407.5 508.64,406 506.4,406 L 506.4,406 L 506.4,404.9 C 509.09,404.9 512.88,405.95 515.07,410.68 C 516.66,414.12 516.91,418 516.91,421.94 z " /><path
           style="fill:#000000;stroke-width:0"
           id="path6362"
           d="M 533.65,437.88 L 533.65,437.93 L 533.64,437.99 L 533.64,438.04 L 533.64,438.09 L 533.64,438.14 L 533.64,438.19 L 533.64,438.23 L 533.64,438.28 L 533.64,438.32 L 533.64,438.36 L 533.64,438.4 L 533.64,438.44 L 533.64,438.48 L 533.63,438.52 L 533.63,438.55 L 533.63,438.59 L 533.62,438.62 L 533.62,438.65 L 533.61,438.71 L 533.6,438.76 L 533.58,438.81 L 533.57,438.86 L 533.55,438.9 L 533.53,438.94 L 533.5,438.98 L 533.47,439.01 L 533.44,439.03 L 533.41,439.06 L 533.37,439.08 L 533.32,439.1 L 533.3,439.11 L 533.27,439.12 L 533.25,439.12 L 533.22,439.13 L 533.19,439.14 L 533.16,439.14 L 533.13,439.15 L 533.1,439.15 L 533.07,439.16 L 533.03,439.16 L 532.99,439.16 L 532.96,439.16 L 532.92,439.17 L 532.88,439.17 L 532.84,439.17 L 532.79,439.17 L 532.75,439.17 L 532.7,439.17 L 532.65,439.18 L 532.6,439.18 L 532.55,439.18 L 532.5,439.18 C 529.41,435.99 525.03,435.99 523.43,435.99 L 523.43,434.44 C 524.43,434.44 527.37,434.44 529.96,435.74 L 529.96,409.93 C 529.96,408.14 529.81,407.54 525.33,407.54 L 523.73,407.54 L 523.73,406 C 525.48,406.15 529.81,406.15 531.8,406.15 C 533.79,406.15 538.13,406.15 539.87,406 L 539.87,407.54 L 538.28,407.54 C 533.79,407.54 533.65,408.09 533.65,409.93 L 533.65,437.88 z " /></g>    </g>
    <g
       id="g6582"
       transform="matrix(0.5,0,0,0.5,145.23999,418.52858)">
      <g
         style="font-style:normal;font-variant:normal;font-weight:normal;font-stretch:normal;letter-spacing:normal;word-spacing:normal;text-anchor:start;fill:none;fill-opacity:1;fill-rule:evenodd;stroke:#000000;stroke-width:2;stroke-linecap:butt;stroke-linejoin:miter;stroke-miterlimit:10.43299961;stroke-dasharray:none;stroke-dashoffset:0;stroke-opacity:1"
         id="g6584"
         xml:space="preserve"
         transform="matrix(0.8571429,0,0,-0.8571429,-150,600)"><path
           style="fill:#000000;stroke-width:0"
           id="path6586"
           d="M 478.91,421.94 L 478.91,422.69 L 478.9,423.43 L 478.88,424.18 L 478.85,424.92 L 478.8,425.67 L 478.74,426.41 L 478.67,427.15 L 478.57,427.88 L 478.46,428.61 L 478.32,429.34 L 478.16,430.06 L 477.97,430.78 L 477.75,431.49 L 477.51,432.2 L 477.23,432.9 L 477.08,433.25 L 476.92,433.6 C 474.63,438.38 470.55,439.18 468.45,439.18 C 465.46,439.18 461.83,437.88 459.79,433.25 C 458.19,429.81 457.94,425.93 457.94,421.94 C 457.94,418.2 458.14,413.72 460.18,409.93 C 462.33,405.9 465.96,404.9 468.4,404.9 L 468.4,406 C 466.46,406 463.52,407.25 462.63,412.03 C 462.08,415.02 462.08,419.6 462.08,422.54 C 462.08,425.73 462.08,429.01 462.48,431.7 C 463.42,437.63 467.16,438.08 468.4,438.08 C 470.05,438.08 473.34,437.18 474.28,432.25 C 474.78,429.46 474.78,425.68 474.78,422.54 C 474.78,418.8 474.78,415.41 474.23,412.23 C 473.48,407.5 470.64,406 468.4,406 L 468.4,406 L 468.4,404.9 C 471.09,404.9 474.88,405.95 477.07,410.68 C 478.66,414.12 478.91,418 478.91,421.94 z " /><path
           style="fill:#000000;stroke-width:0"
           id="path6588"
           d="M 489.56,408.64 L 489.56,408.78 L 489.55,408.91 L 489.53,409.04 L 489.51,409.17 L 489.48,409.3 L 489.44,409.42 L 489.4,409.54 L 489.35,409.66 L 489.3,409.78 L 489.24,409.89 L 489.18,410 L 489.11,410.11 L 489.03,410.21 L 488.96,410.31 L 488.87,410.41 L 488.78,410.5 L 488.69,410.59 L 488.6,410.67 L 488.5,410.75 L 488.39,410.83 L 488.29,410.9 L 488.18,410.96 L 488.06,411.02 L 487.95,411.07 L 487.83,411.12 L 487.7,411.16 L 487.58,411.2 L 487.45,411.23 L 487.32,411.25 L 487.19,411.27 L 487.06,411.28 L 486.93,411.28 C 485.48,411.28 484.29,410.09 484.29,408.64 C 484.29,407.2 485.48,406 486.93,406 C 488.37,406 489.56,407.2 489.56,408.64 z " /><path
           style="fill:#000000;stroke-width:0"
           id="path6590"
           d="M 508.64,437.88 L 508.64,437.93 L 508.64,437.99 L 508.64,438.04 L 508.64,438.09 L 508.64,438.14 L 508.64,438.19 L 508.64,438.23 L 508.64,438.28 L 508.64,438.32 L 508.64,438.36 L 508.64,438.4 L 508.64,438.44 L 508.64,438.48 L 508.63,438.52 L 508.63,438.55 L 508.63,438.59 L 508.62,438.62 L 508.62,438.65 L 508.61,438.71 L 508.6,438.76 L 508.58,438.81 L 508.57,438.86 L 508.55,438.9 L 508.53,438.94 L 508.5,438.98 L 508.47,439.01 L 508.44,439.03 L 508.41,439.06 L 508.37,439.08 L 508.32,439.1 L 508.3,439.11 L 508.27,439.12 L 508.25,439.12 L 508.22,439.13 L 508.19,439.14 L 508.16,439.14 L 508.13,439.15 L 508.1,439.15 L 508.07,439.16 L 508.03,439.16 L 507.99,439.16 L 507.96,439.16 L 507.92,439.17 L 507.88,439.17 L 507.84,439.17 L 507.79,439.17 L 507.75,439.17 L 507.7,439.17 L 507.65,439.18 L 507.6,439.18 L 507.55,439.18 L 507.5,439.18 C 504.41,435.99 500.03,435.99 498.43,435.99 L 498.43,434.44 C 499.43,434.44 502.37,434.44 504.96,435.74 L 504.96,409.93 C 504.96,408.14 504.81,407.54 500.33,407.54 L 498.73,407.54 L 498.73,406 C 500.48,406.15 504.81,406.15 506.8,406.15 C 508.79,406.15 513.13,406.15 514.87,406 L 514.87,407.54 L 513.28,407.54 C 508.79,407.54 508.64,408.09 508.64,409.93 L 508.64,437.88 z " /></g>    </g>
    <path
       style="font-style:normal;font-variant:normal;font-weight:normal;font-stretch:normal;letter-spacing:normal;word-spacing:normal;text-anchor:start;fill:#000000;fill-opacity:1;fill-rule:evenodd;stroke:#000000;stroke-width:0;stroke-linecap:butt;stroke-linejoin:miter;stroke-miterlimit:10.43299961;stroke-dasharray:none;stroke-dashoffset:0;stroke-opacity:1"
       id="path6824"
       d="M 466.32999,531.33714 L 466.32999,531.31572 L 466.32999,531.29 L 466.32999,531.26857 L 466.32999,531.24714 L 466.32999,531.22572 L 466.32999,531.20428 L 466.32999,531.18714 L 466.32999,531.16572 L 466.32999,531.14857 L 466.32999,531.13143 L 466.32999,531.11428 L 466.32999,531.09715 L 466.32999,531.08 L 466.32571,531.06286 L 466.32571,531.05 L 466.32571,531.03286 L 466.32143,531.02 L 466.32143,531.00714 L 466.31714,530.98143 L 466.31286,530.96 L 466.30429,530.93857 L 466.3,530.91715 L 466.29143,530.9 L 466.28286,530.88286 L 466.26999,530.86572 L 466.25714,530.85286 L 466.24428,530.84429 L 466.23143,530.83143 L 466.21429,530.82286 L 466.19286,530.81428 L 466.18428,530.81 L 466.17142,530.80572 L 466.16286,530.80572 L 466.14999,530.80143 L 466.13714,530.79714 L 466.12429,530.79714 L 466.11142,530.79286 L 466.09857,530.79286 L 466.08571,530.78857 L 466.06857,530.78857 L 466.05142,530.78857 L 466.03857,530.78857 L 466.02143,530.78429 L 466.00429,530.78429 L 465.98714,530.78429 L 465.96571,530.78429 L 465.94857,530.78429 L 465.92714,530.78429 L 465.90571,530.78 L 465.88429,530.78 L 465.86286,530.78 L 465.84143,530.78 C 464.51714,532.14714 462.63999,532.14714 461.95429,532.14714 L 461.95429,532.81143 C 462.38286,532.81143 463.64285,532.81143 464.75286,532.25428 L 464.75286,543.31572 C 464.75286,544.08286 464.68857,544.34 462.76857,544.34 L 462.08285,544.34 L 462.08285,545 C 462.83285,544.93572 464.68857,544.93572 465.54143,544.93572 C 466.39429,544.93572 468.25428,544.93572 469,545 L 469,544.34 L 468.31857,544.34 C 466.39429,544.34 466.32999,544.10429 466.32999,543.31572 L 466.32999,531.33714 z " />
    <g
       id="g6975"
       transform="matrix(0.5,0,0,0.5,509.25285,418.52858)">
      <path
         style="font-style:normal;font-variant:normal;font-weight:normal;font-stretch:normal;letter-spacing:normal;word-spacing:normal;text-anchor:start;fill:#000000;fill-opacity:1;fill-rule:evenodd;stroke:#000000;stroke-width:0;stroke-linecap:butt;stroke-linejoin:miter;stroke-miterlimit:10.43299961;stroke-dasharray:none;stroke-dashoffset:0;stroke-opacity:1"
         d="M 273.97716,224.67427 L 273.97716,224.63141 L 273.97716,224.57998 L 273.97716,224.53712 L 273.97716,224.49427 L 273.97716,224.45141 L 273.97716,224.40855 L 273.97716,224.37427 L 273.97716,224.33141 L 273.97716,224.29712 L 273.97716,224.26284 L 273.97716,224.22855 L 273.97716,224.19427 L 273.97716,224.15998 L 273.96859,224.1257 L 273.96859,224.09998 L 273.96859,224.0657 L 273.96002,224.03998 L 273.96002,224.01427 L 273.95145,223.96284 L 273.94288,223.91998 L 273.92574,223.87712 L 273.91716,223.83427 L 273.90002,223.79998 L 273.88288,223.7657 L 273.85716,223.73141 L 273.83145,223.7057 L 273.80574,223.68855 L 273.78002,223.66284 L 273.74574,223.6457 L 273.70288,223.62855 L 273.68574,223.61998 L 273.66002,223.61141 L 273.64288,223.61141 L 273.61716,223.60284 L 273.59145,223.59427 L 273.56574,223.59427 L 273.54002,223.5857 L 273.51431,223.5857 L 273.48859,223.57712 L 273.45431,223.57712 L 273.42002,223.57712 L 273.39431,223.57712 L 273.36002,223.56855 L 273.32574,223.56855 L 273.29145,223.56855 L 273.24859,223.56855 L 273.21431,223.56855 L 273.17145,223.56855 L 273.12859,223.55998 L 273.08574,223.55998 L 273.04288,223.55998 L 273.00002,223.55998 C 270.35145,226.29427 266.59716,226.29427 265.22574,226.29427 L 265.22574,227.62284 C 266.08288,227.62284 268.60288,227.62284 270.82288,226.50855 L 270.82288,248.63141 C 270.82288,250.1657 270.69431,250.67998 266.85431,250.67998 L 265.48288,250.67998 L 265.48288,251.99998 C 266.98288,251.87141 270.69431,251.87141 272.40002,251.87141 C 274.10574,251.87141 277.82574,251.87141 279.31716,251.99998 L 279.31716,250.67998 L 277.95431,250.67998 C 274.10574,250.67998 273.97716,250.20855 273.97716,248.63141 L 273.97716,224.67427 z "
         id="path6826" />
      <path
         style="font-style:normal;font-variant:normal;font-weight:normal;font-stretch:normal;letter-spacing:normal;word-spacing:normal;text-anchor:start;fill:#000000;fill-opacity:1;fill-rule:evenodd;stroke:#000000;stroke-width:0;stroke-linecap:butt;stroke-linejoin:miter;stroke-miterlimit:10.43299961;stroke-dasharray:none;stroke-dashoffset:0;stroke-opacity:1"
         d="M 302.49431,238.33712 L 302.49431,237.69427 L 302.48574,237.05998 L 302.46859,236.41712 L 302.44288,235.78284 L 302.40002,235.13998 L 302.34859,234.5057 L 302.28859,233.87141 L 302.20288,233.2457 L 302.10859,232.61998 L 301.98859,231.99427 L 301.85145,231.37712 L 301.68859,230.75998 L 301.50002,230.15141 L 301.29431,229.54284 L 301.05431,228.94284 L 300.92574,228.64284 L 300.78859,228.34284 C 298.82574,224.2457 295.32859,223.55998 293.52859,223.55998 C 290.97431,223.55998 287.85431,224.67427 286.10574,228.64284 C 284.73431,231.59141 284.52002,234.91712 284.52002,238.33712 C 284.52002,241.54284 284.69145,245.38284 286.44002,248.63141 C 288.28288,252.0857 291.39431,252.94284 293.48574,252.94284 L 293.48574,251.99998 C 291.82288,251.99998 289.30288,250.92855 288.54002,246.83141 C 288.06859,244.26855 288.06859,240.34284 288.06859,237.82284 C 288.06859,235.08855 288.06859,232.27712 288.41145,229.97141 C 289.21716,224.88855 292.42288,224.50284 293.48574,224.50284 C 294.90002,224.50284 297.72002,225.27427 298.52574,229.49998 C 298.95431,231.89141 298.95431,235.13141 298.95431,237.82284 C 298.95431,241.02855 298.95431,243.93427 298.48288,246.65998 C 297.84002,250.71427 295.41431,251.99998 293.48574,251.99998 L 293.48574,251.99998 L 293.48574,252.94284 C 295.79145,252.94284 299.04002,252.04284 300.91717,247.98855 C 302.28002,245.03998 302.49431,241.71427 302.49431,238.33712 z "
         id="path6828" />
    </g>
    <g
       id="g6970"
       transform="matrix(0.5,0,0,0.5,665.32715,418.52858)">
      <path
         style="font-style:normal;font-variant:normal;font-weight:normal;font-stretch:normal;letter-spacing:normal;word-spacing:normal;text-anchor:start;fill:#000000;fill-opacity:1;fill-rule:evenodd;stroke:#000000;stroke-width:0;stroke-linecap:butt;stroke-linejoin:miter;stroke-miterlimit:10.43299961;stroke-dasharray:none;stroke-dashoffset:0;stroke-opacity:1"
         d="M 316.84288,224.67427 L 316.84288,224.63141 L 316.83431,224.57998 L 316.83431,224.53712 L 316.83431,224.49427 L 316.83431,224.45141 L 316.83431,224.40855 L 316.83431,224.37427 L 316.83431,224.33141 L 316.83431,224.29712 L 316.83431,224.26284 L 316.83431,224.22855 L 316.83431,224.19427 L 316.83431,224.15998 L 316.82574,224.1257 L 316.82574,224.09998 L 316.82574,224.0657 L 316.81717,224.03998 L 316.81717,224.01427 L 316.80859,223.96284 L 316.80002,223.91998 L 316.78288,223.87712 L 316.77431,223.83427 L 316.75717,223.79998 L 316.74002,223.7657 L 316.71431,223.73141 L 316.68859,223.7057 L 316.66288,223.68855 L 316.63717,223.66284 L 316.60288,223.6457 L 316.56002,223.62855 L 316.54288,223.61998 L 316.51717,223.61141 L 316.50002,223.61141 L 316.47431,223.60284 L 316.44859,223.59427 L 316.42288,223.59427 L 316.39717,223.5857 L 316.37145,223.5857 L 316.34574,223.57712 L 316.31145,223.57712 L 316.27717,223.57712 L 316.25145,223.57712 L 316.21717,223.56855 L 316.18288,223.56855 L 316.14859,223.56855 L 316.10574,223.56855 L 316.07145,223.56855 L 316.02859,223.56855 L 315.98574,223.55998 L 315.94288,223.55998 L 315.90002,223.55998 L 315.85717,223.55998 C 313.20859,226.29427 309.45431,226.29427 308.08288,226.29427 L 308.08288,227.62284 C 308.94002,227.62284 311.46002,227.62284 313.68002,226.50855 L 313.68002,248.63141 C 313.68002,250.1657 313.55145,250.67998 309.71145,250.67998 L 308.34002,250.67998 L 308.34002,251.99998 C 309.84002,251.87141 313.55145,251.87141 315.25717,251.87141 C 316.96288,251.87141 320.68288,251.87141 322.17431,251.99998 L 322.17431,250.67998 L 320.81145,250.67998 C 316.96288,250.67998 316.84288,250.20855 316.84288,248.63141 L 316.84288,224.67427 z "
         id="path6830" />
      <path
         style="font-style:normal;font-variant:normal;font-weight:normal;font-stretch:normal;letter-spacing:normal;word-spacing:normal;text-anchor:start;fill:#000000;fill-opacity:1;fill-rule:evenodd;stroke:#000000;stroke-width:0;stroke-linecap:butt;stroke-linejoin:miter;stroke-miterlimit:10.43299961;stroke-dasharray:none;stroke-dashoffset:0;stroke-opacity:1"
         d="M 345.35145,238.33712 L 345.35145,237.69427 L 345.34288,237.05998 L 345.32574,236.41712 L 345.30002,235.78284 L 345.25717,235.13998 L 345.20574,234.5057 L 345.14574,233.87141 L 345.06002,233.2457 L 344.96574,232.61998 L 344.84574,231.99427 L 344.7086,231.37712 L 344.54574,230.75998 L 344.35717,230.15141 L 344.15145,229.54284 L 343.91145,228.94284 L 343.78288,228.64284 L 343.64574,228.34284 C 341.68288,224.2457 338.18574,223.55998 336.38574,223.55998 C 333.83145,223.55998 330.71145,224.67427 328.95431,228.64284 C 327.59145,231.59141 327.37717,234.91712 327.37717,238.33712 C 327.37717,241.54284 327.5486,245.38284 329.29717,248.63141 C 331.14002,252.0857 334.25145,252.94284 336.34288,252.94284 L 336.34288,251.99998 C 334.68002,251.99998 332.16002,250.92855 331.39717,246.83141 C 330.92574,244.26855 330.92574,240.34284 330.92574,237.82284 C 330.92574,235.08855 330.92574,232.27712 331.2686,229.97141 C 332.07431,224.88855 335.28002,224.50284 336.34288,224.50284 C 337.75717,224.50284 340.57717,225.27427 341.38288,229.49998 C 341.81145,231.89141 341.81145,235.13141 341.81145,237.82284 C 341.81145,241.02855 341.81145,243.93427 341.34002,246.65998 C 340.69717,250.71427 338.27145,251.99998 336.34288,251.99998 L 336.34288,251.99998 L 336.34288,252.94284 C 338.6486,252.94284 341.89717,252.04284 343.77431,247.98855 C 345.13717,245.03998 345.35145,241.71427 345.35145,238.33712 z "
         id="path6832" />
      <path
         style="font-style:normal;font-variant:normal;font-weight:normal;font-stretch:normal;letter-spacing:normal;word-spacing:normal;text-anchor:start;fill:#000000;fill-opacity:1;fill-rule:evenodd;stroke:#000000;stroke-width:0;stroke-linecap:butt;stroke-linejoin:miter;stroke-miterlimit:10.43299961;stroke-dasharray:none;stroke-dashoffset:0;stroke-opacity:1"
         d="M 366.78003,238.33712 L 366.78003,237.69427 L 366.77145,237.05998 L 366.75431,236.41712 L 366.7286,235.78284 L 366.68574,235.13998 L 366.63431,234.5057 L 366.57431,233.87141 L 366.4886,233.2457 L 366.39431,232.61998 L 366.27431,231.99427 L 366.13717,231.37712 L 365.97431,230.75998 L 365.78574,230.15141 L 365.58003,229.54284 L 365.34003,228.94284 L 365.21145,228.64284 L 365.07431,228.34284 C 363.11145,224.2457 359.61431,223.55998 357.81431,223.55998 C 355.26003,223.55998 352.14003,224.67427 350.38288,228.64284 C 349.02002,231.59141 348.80574,234.91712 348.80574,238.33712 C 348.80574,241.54284 348.97717,245.38284 350.72574,248.63141 C 352.5686,252.0857 355.68003,252.94284 357.77145,252.94284 L 357.77145,251.99998 C 356.1086,251.99998 353.5886,250.92855 352.82574,246.83141 C 352.35431,244.26855 352.35431,240.34284 352.35431,237.82284 C 352.35431,235.08855 352.35431,232.27712 352.69717,229.97141 C 353.50288,224.88855 356.7086,224.50284 357.77145,224.50284 C 359.18574,224.50284 362.00574,225.27427 362.81145,229.49998 C 363.24003,231.89141 363.24003,235.13141 363.24003,237.82284 C 363.24003,241.02855 363.24003,243.93427 362.7686,246.65998 C 362.12574,250.71427 359.70003,251.99998 357.77145,251.99998 L 357.77145,251.99998 L 357.77145,252.94284 C 360.07717,252.94284 363.32574,252.04284 365.20288,247.98855 C 366.56574,245.03998 366.78003,241.71427 366.78003,238.33712 z "
         id="path6834" />
    </g>
    <g
       id="g7358"
       transform="matrix(0.5,0,0,0.5,-88.74715,211.62001)">
      <g
         style="font-style:normal;font-variant:normal;font-weight:normal;font-stretch:normal;letter-spacing:normal;word-spacing:normal;text-anchor:start;fill:none;fill-opacity:1;fill-rule:evenodd;stroke:#000000;stroke-width:2;stroke-linecap:butt;stroke-linejoin:miter;stroke-miterlimit:10.43299961;stroke-dasharray:none;stroke-dashoffset:0;stroke-opacity:1"
         id="g7360"
         xml:space="preserve"
         transform="matrix(0.8571429,0,0,-0.8571429,-150,600)"><path
           style="fill:#000000;stroke-width:0"
           id="path7362"
           d="M 488.93,417.46 L 489.06,417.46 L 489.2,417.46 L 489.34,417.46 L 489.41,417.47 L 489.48,417.47 L 489.55,417.48 L 489.62,417.49 L 489.69,417.5 L 489.75,417.51 L 489.82,417.52 L 489.88,417.54 L 489.95,417.56 L 490.01,417.58 L 490.07,417.61 L 490.13,417.63 L 490.18,417.67 L 490.23,417.7 L 490.28,417.74 L 490.33,417.78 L 490.37,417.83 L 490.39,417.85 L 490.41,417.88 L 490.43,417.9 L 490.45,417.93 L 490.46,417.96 L 490.48,417.99 L 490.49,418.02 L 490.51,418.06 L 490.52,418.09 L 490.53,418.12 L 490.54,418.16 L 490.55,418.2 L 490.55,418.24 L 490.56,418.28 L 490.56,418.32 L 490.57,418.36 L 490.57,418.41 L 490.57,418.45 C 490.57,419.45 489.63,419.45 488.93,419.45 L 461.78,419.45 C 461.08,419.45 460.13,419.45 460.13,418.45 C 460.13,417.46 461.08,417.46 461.78,417.46 L 488.93,417.46 z " /><path
           style="fill:#000000;stroke-width:0"
           id="path7364"
           d="M 500.57,422.34 L 500.57,423.54 C 500.57,436.14 506.75,437.93 509.29,437.93 C 510.49,437.93 512.58,437.63 513.68,435.94 C 512.93,435.94 510.94,435.94 510.94,433.7 C 510.94,432.15 512.13,431.41 513.23,431.41 C 514.02,431.41 515.52,431.85 515.52,433.8 C 515.52,436.79 513.33,439.18 509.19,439.18 C 502.82,439.18 496.09,432.75 496.09,421.74 C 496.09,408.44 501.87,404.9 506.5,404.9 C 512.03,404.9 516.77,409.59 516.77,416.16 C 516.77,422.49 512.33,427.27 506.8,427.27 L 506.75,426.13 C 507.55,426.13 509.84,426.13 511.39,423.04 C 512.28,421.19 512.28,418.65 512.28,416.21 C 512.28,413.82 512.28,411.33 511.43,409.54 C 509.94,406.55 507.65,406.3 506.5,406.3 L 506.5,406.3 C 503.36,406.3 501.87,409.29 501.57,410.04 C 500.68,412.38 500.68,416.36 500.68,417.26 C 500.68,421.14 502.27,426.13 506.75,426.13 L 506.8,427.27 C 503.41,427.27 501.57,424.73 500.57,422.34 z " /><path
           style="fill:#000000;stroke-width:0"
           id="path7366"
           d="M 541.91,421.94 L 541.91,422.69 L 541.9,423.43 L 541.88,424.18 L 541.85,424.92 L 541.8,425.67 L 541.74,426.41 L 541.67,427.15 L 541.57,427.88 L 541.46,428.61 L 541.32,429.34 L 541.16,430.06 L 540.97,430.78 L 540.75,431.49 L 540.51,432.2 L 540.23,432.9 L 540.08,433.25 L 539.92,433.6 C 537.63,438.38 533.55,439.18 531.45,439.18 C 528.47,439.18 524.83,437.88 522.78,433.25 C 521.19,429.81 520.94,425.93 520.94,421.94 C 520.94,418.2 521.14,413.72 523.18,409.93 C 525.33,405.9 528.96,404.9 531.4,404.9 L 531.4,406 C 529.46,406 526.52,407.25 525.63,412.03 C 525.08,415.02 525.08,419.6 525.08,422.54 C 525.08,425.73 525.08,429.01 525.48,431.7 C 526.42,437.63 530.16,438.08 531.4,438.08 C 533.05,438.08 536.34,437.18 537.28,432.25 C 537.78,429.46 537.78,425.68 537.78,422.54 C 537.78,418.8 537.78,415.41 537.23,412.23 C 536.48,407.5 533.65,406 531.4,406 L 531.4,406 L 531.4,404.9 C 534.09,404.9 537.88,405.95 540.07,410.68 C 541.66,414.12 541.91,418 541.91,421.94 z " /></g>    </g>
    <g
       id="g7635"
       transform="matrix(0.5,0,0,0.5,-88.74715,114.93573)">
      <g
         style="font-style:normal;font-variant:normal;font-weight:normal;font-stretch:normal;letter-spacing:normal;word-spacing:normal;text-anchor:start;fill:none;fill-opacity:1;fill-rule:evenodd;stroke:#000000;stroke-width:2;stroke-linecap:butt;stroke-linejoin:miter;stroke-miterlimit:10.43299961;stroke-dasharray:none;stroke-dashoffset:0;stroke-opacity:1"
         id="g7637"
         xml:space="preserve"
         transform="matrix(0.8571429,0,0,-0.8571429,-150,600)"><path
           style="fill:#000000;stroke-width:0"
           id="path7639"
           d="M 488.93,417.46 L 489.06,417.46 L 489.2,417.46 L 489.34,417.46 L 489.41,417.47 L 489.48,417.47 L 489.55,417.48 L 489.62,417.49 L 489.69,417.5 L 489.75,417.51 L 489.82,417.52 L 489.88,417.54 L 489.95,417.56 L 490.01,417.58 L 490.07,417.61 L 490.13,417.63 L 490.18,417.67 L 490.23,417.7 L 490.28,417.74 L 490.33,417.78 L 490.37,417.83 L 490.39,417.85 L 490.41,417.88 L 490.43,417.9 L 490.45,417.93 L 490.46,417.96 L 490.48,417.99 L 490.49,418.02 L 490.51,418.06 L 490.52,418.09 L 490.53,418.12 L 490.54,418.16 L 490.55,418.2 L 490.55,418.24 L 490.56,418.28 L 490.56,418.32 L 490.57,418.36 L 490.57,418.41 L 490.57,418.45 C 490.57,419.45 489.63,419.45 488.93,419.45 L 461.78,419.45 C 461.08,419.45 460.13,419.45 460.13,418.45 C 460.13,417.46 461.08,417.46 461.78,417.46 L 488.93,417.46 z " /><path
           style="fill:#000000;stroke-width:0"
           id="path7641"
           d="M 495.39,414.22 L 508.64,414.22 L 508.64,409.89 C 508.64,408.09 508.55,407.54 504.86,407.54 L 503.81,407.54 L 503.81,406 C 505.86,406.15 508.45,406.15 510.54,406.15 C 512.63,406.15 515.27,406.15 517.31,406 L 517.31,407.54 L 516.27,407.54 C 512.58,407.54 512.48,408.09 512.48,409.89 L 512.48,414.22 L 517.46,414.22 L 517.46,415.76 L 512.48,415.76 L 512.48,438.43 C 512.48,439.43 512.48,439.72 511.68,439.72 C 511.23,439.72 511.09,439.72 510.69,439.13 L 495.39,415.76 L 496.79,415.76 L 508.95,434.34 L 508.95,415.76 L 496.79,415.76 L 495.39,415.76 L 495.39,414.22 z " /><path
           style="fill:#000000;stroke-width:0"
           id="path7643"
           d="M 541.91,421.94 L 541.91,422.69 L 541.9,423.43 L 541.88,424.18 L 541.85,424.92 L 541.8,425.67 L 541.74,426.41 L 541.67,427.15 L 541.57,427.88 L 541.46,428.61 L 541.32,429.34 L 541.16,430.06 L 540.97,430.78 L 540.75,431.49 L 540.51,432.2 L 540.23,432.9 L 540.08,433.25 L 539.92,433.6 C 537.63,438.38 533.55,439.18 531.45,439.18 C 528.47,439.18 524.83,437.88 522.78,433.25 C 521.19,429.81 520.94,425.93 520.94,421.94 C 520.94,418.2 521.14,413.72 523.18,409.93 C 525.33,405.9 528.96,404.9 531.4,404.9 L 531.4,406 C 529.46,406 526.52,407.25 525.63,412.03 C 525.08,415.02 525.08,419.6 525.08,422.54 C 525.08,425.73 525.08,429.01 525.48,431.7 C 526.42,437.63 530.16,438.08 531.4,438.08 C 533.05,438.08 536.34,437.18 537.28,432.25 C 537.78,429.46 537.78,425.68 537.78,422.54 C 537.78,418.8 537.78,415.41 537.23,412.23 C 536.48,407.5 533.65,406 531.4,406 L 531.4,406 L 531.4,404.9 C 534.09,404.9 537.88,405.95 540.07,410.68 C 541.66,414.12 541.91,418 541.91,421.94 z " /></g>    </g>
    <g
       id="g7893"
       transform="matrix(0.5,0,0,0.5,-88.74715,18.02)">
      <g
         style="font-style:normal;font-variant:normal;font-weight:normal;font-stretch:normal;letter-spacing:normal;word-spacing:normal;text-anchor:start;fill:none;fill-opacity:1;fill-rule:evenodd;stroke:#000000;stroke-width:2;stroke-linecap:butt;stroke-linejoin:miter;stroke-miterlimit:10.43299961;stroke-dasharray:none;stroke-dashoffset:0;stroke-opacity:1"
         id="g7895"
         xml:space="preserve"
         transform="matrix(0.8571429,0,0,-0.8571429,-150,600)"><path
           style="fill:#000000;stroke-width:0"
           id="path7897"
           d="M 488.93,417.46 L 489.06,417.46 L 489.2,417.46 L 489.34,417.46 L 489.41,417.47 L 489.48,417.47 L 489.55,417.48 L 489.62,417.49 L 489.69,417.5 L 489.75,417.51 L 489.82,417.52 L 489.88,417.54 L 489.95,417.56 L 490.01,417.58 L 490.07,417.61 L 490.13,417.63 L 490.18,417.67 L 490.23,417.7 L 490.28,417.74 L 490.33,417.78 L 490.37,417.83 L 490.39,417.85 L 490.41,417.88 L 490.43,417.9 L 490.45,417.93 L 490.46,417.96 L 490.48,417.99 L 490.49,418.02 L 490.51,418.06 L 490.52,418.09 L 490.53,418.12 L 490.54,418.16 L 490.55,418.2 L 490.55,418.24 L 490.56,418.28 L 490.56,418.32 L 490.57,418.36 L 490.57,418.41 L 490.57,418.45 C 490.57,419.45 489.63,419.45 488.93,419.45 L 461.78,419.45 C 461.08,419.45 460.13,419.45 460.13,418.45 C 460.13,417.46 461.08,417.46 461.78,417.46 L 488.93,417.46 z " /><path
           style="fill:#000000;stroke-width:0"
           id="path7899"
           d="M 516.37,414.67 L 515.12,414.67 C 514.87,413.17 514.52,410.98 514.02,410.23 C 513.68,409.84 510.39,409.84 509.29,409.84 L 500.33,409.84 L 505.61,414.96 C 513.38,421.84 516.37,424.53 516.37,429.51 C 516.37,435.19 511.88,439.18 505.8,439.18 C 500.18,439.18 496.49,434.59 496.49,430.16 C 496.49,427.37 498.98,427.37 499.13,427.37 C 499.98,427.37 501.72,427.97 501.72,430.01 C 501.72,431.3 500.82,432.6 499.08,432.6 C 498.68,432.6 498.58,432.6 498.43,432.55 C 499.58,435.79 502.27,437.63 505.16,437.63 C 509.69,437.63 511.83,433.6 511.83,429.51 C 511.83,425.53 509.34,421.59 506.6,418.5 L 497.04,407.84 C 496.49,407.3 496.49,407.2 496.49,406 L 514.97,406 L 516.37,414.67 z " /><path
           style="fill:#000000;stroke-width:0"
           id="path7901"
           d="M 541.91,421.94 L 541.91,422.69 L 541.9,423.43 L 541.88,424.18 L 541.85,424.92 L 541.8,425.67 L 541.74,426.41 L 541.67,427.15 L 541.57,427.88 L 541.46,428.61 L 541.32,429.34 L 541.16,430.06 L 540.97,430.78 L 540.75,431.49 L 540.51,432.2 L 540.23,432.9 L 540.08,433.25 L 539.92,433.6 C 537.63,438.38 533.55,439.18 531.45,439.18 C 528.47,439.18 524.83,437.88 522.78,433.25 C 521.19,429.81 520.94,425.93 520.94,421.94 C 520.94,418.2 521.14,413.72 523.18,409.93 C 525.33,405.9 528.96,404.9 531.4,404.9 L 531.4,406 C 529.46,406 526.52,407.25 525.63,412.03 C 525.08,415.02 525.08,419.6 525.08,422.54 C 525.08,425.73 525.08,429.01 525.48,431.7 C 526.42,437.63 530.16,438.08 531.4,438.08 C 533.05,438.08 536.34,437.18 537.28,432.25 C 537.78,429.46 537.78,425.68 537.78,422.54 C 537.78,418.8 537.78,415.41 537.23,412.23 C 536.48,407.5 533.65,406 531.4,406 L 531.4,406 L 531.4,404.9 C 534.09,404.9 537.88,405.95 540.07,410.68 C 541.66,414.12 541.91,418 541.91,421.94 z " /></g>    </g>
    <g
       id="g8161"
       transform="matrix(0.5,0,0,0.5,-99.46144,404.72001)">
      <g
         style="font-style:normal;font-variant:normal;font-weight:normal;font-stretch:normal;letter-spacing:normal;word-spacing:normal;text-anchor:start;fill:none;fill-opacity:1;fill-rule:evenodd;stroke:#000000;stroke-width:2;stroke-linecap:butt;stroke-linejoin:miter;stroke-miterlimit:10.43299961;stroke-dasharray:none;stroke-dashoffset:0;stroke-opacity:1"
         id="g8163"
         xml:space="preserve"
         transform="matrix(0.8571429,0,0,-0.8571429,-150,600)"><path
           style="fill:#000000;stroke-width:0"
           id="path8165"
           d="M 488.93,417.46 L 489.06,417.46 L 489.2,417.46 L 489.34,417.46 L 489.41,417.47 L 489.48,417.47 L 489.55,417.48 L 489.62,417.49 L 489.69,417.5 L 489.75,417.51 L 489.82,417.52 L 489.88,417.54 L 489.95,417.56 L 490.01,417.58 L 490.07,417.61 L 490.13,417.63 L 490.18,417.67 L 490.23,417.7 L 490.28,417.74 L 490.33,417.78 L 490.37,417.83 L 490.39,417.85 L 490.41,417.88 L 490.43,417.9 L 490.45,417.93 L 490.46,417.96 L 490.48,417.99 L 490.49,418.02 L 490.51,418.06 L 490.52,418.09 L 490.53,418.12 L 490.54,418.16 L 490.55,418.2 L 490.55,418.24 L 490.56,418.28 L 490.56,418.32 L 490.57,418.36 L 490.57,418.41 L 490.57,418.45 C 490.57,419.45 489.63,419.45 488.93,419.45 L 461.78,419.45 C 461.08,419.45 460.13,419.45 460.13,418.45 C 460.13,417.46 461.08,417.46 461.78,417.46 L 488.93,417.46 z " /><path
           style="fill:#000000;stroke-width:0"
           id="path8167"
           d="M 508.64,437.88 L 508.64,437.93 L 508.64,437.99 L 508.64,438.04 L 508.64,438.09 L 508.64,438.14 L 508.64,438.19 L 508.64,438.23 L 508.64,438.28 L 508.64,438.32 L 508.64,438.36 L 508.64,438.4 L 508.64,438.44 L 508.64,438.48 L 508.63,438.52 L 508.63,438.55 L 508.63,438.59 L 508.62,438.62 L 508.62,438.65 L 508.61,438.71 L 508.6,438.76 L 508.58,438.81 L 508.57,438.86 L 508.55,438.9 L 508.53,438.94 L 508.5,438.98 L 508.47,439.01 L 508.44,439.03 L 508.41,439.06 L 508.37,439.08 L 508.32,439.1 L 508.3,439.11 L 508.27,439.12 L 508.25,439.12 L 508.22,439.13 L 508.19,439.14 L 508.16,439.14 L 508.13,439.15 L 508.1,439.15 L 508.07,439.16 L 508.03,439.16 L 507.99,439.16 L 507.96,439.16 L 507.92,439.17 L 507.88,439.17 L 507.84,439.17 L 507.79,439.17 L 507.75,439.17 L 507.7,439.17 L 507.65,439.18 L 507.6,439.18 L 507.55,439.18 L 507.5,439.18 C 504.41,435.99 500.03,435.99 498.43,435.99 L 498.43,434.44 C 499.43,434.44 502.37,434.44 504.96,435.74 L 504.96,409.93 C 504.96,408.14 504.81,407.54 500.33,407.54 L 498.73,407.54 L 498.73,406 C 500.48,406.15 504.81,406.15 506.8,406.15 C 508.79,406.15 513.13,406.15 514.87,406 L 514.87,407.54 L 513.28,407.54 C 508.79,407.54 508.64,408.09 508.64,409.93 L 508.64,437.88 z " /><path
           style="fill:#000000;stroke-width:0"
           id="path8169"
           d="M 541.91,421.94 L 541.91,422.69 L 541.9,423.43 L 541.88,424.18 L 541.85,424.92 L 541.8,425.67 L 541.74,426.41 L 541.67,427.15 L 541.57,427.88 L 541.46,428.61 L 541.32,429.34 L 541.16,430.06 L 540.97,430.78 L 540.75,431.49 L 540.51,432.2 L 540.23,432.9 L 540.08,433.25 L 539.92,433.6 C 537.63,438.38 533.55,439.18 531.45,439.18 C 528.47,439.18 524.83,437.88 522.78,433.25 C 521.19,429.81 520.94,425.93 520.94,421.94 C 520.94,418.2 521.14,413.72 523.18,409.93 C 525.33,405.9 528.96,404.9 531.4,404.9 L 531.4,406 C 529.46,406 526.52,407.25 525.63,412.03 C 525.08,415.02 525.08,419.6 525.08,422.54 C 525.08,425.73 525.08,429.01 525.48,431.7 C 526.42,437.63 530.16,438.08 531.4,438.08 C 533.05,438.08 536.34,437.18 537.28,432.25 C 537.78,429.46 537.78,425.68 537.78,422.54 C 537.78,418.8 537.78,415.41 537.23,412.23 C 536.48,407.5 533.65,406 531.4,406 L 531.4,406 L 531.4,404.9 C 534.09,404.9 537.88,405.95 540.07,410.68 C 541.66,414.12 541.91,418 541.91,421.94 z " /><path
           style="fill:#000000;stroke-width:0"
           id="path8171"
           d="M 566.91,421.94 L 566.91,422.69 L 566.9,423.43 L 566.88,424.18 L 566.85,424.92 L 566.8,425.67 L 566.74,426.41 L 566.67,427.15 L 566.57,427.88 L 566.46,428.61 L 566.32,429.34 L 566.16,430.06 L 565.97,430.78 L 565.75,431.49 L 565.51,432.2 L 565.23,432.9 L 565.08,433.25 L 564.92,433.6 C 562.63,438.38 558.55,439.18 556.45,439.18 C 553.47,439.18 549.83,437.88 547.78,433.25 C 546.19,429.81 545.94,425.93 545.94,421.94 C 545.94,418.2 546.14,413.72 548.18,409.93 C 550.33,405.9 553.96,404.9 556.4,404.9 L 556.4,406 C 554.46,406 551.52,407.25 550.63,412.03 C 550.08,415.02 550.08,419.6 550.08,422.54 C 550.08,425.73 550.08,429.01 550.48,431.7 C 551.42,437.63 555.16,438.08 556.4,438.08 C 558.05,438.08 561.34,437.18 562.28,432.25 C 562.78,429.46 562.78,425.68 562.78,422.54 C 562.78,418.8 562.78,415.41 562.23,412.23 C 561.48,407.5 558.65,406 556.4,406 L 556.4,406 L 556.4,404.9 C 559.09,404.9 562.88,405.95 565.07,410.68 C 566.66,414.12 566.91,418 566.91,421.94 z " /></g>    </g>
    <g
       id="g8443"
       transform="matrix(0.5,0,0,0.5,-88.74715,307.92001)">
      <g
         style="font-style:normal;font-variant:normal;font-weight:normal;font-stretch:normal;letter-spacing:normal;word-spacing:normal;text-anchor:start;fill:none;fill-opacity:1;fill-rule:evenodd;stroke:#000000;stroke-width:2;stroke-linecap:butt;stroke-linejoin:miter;stroke-miterlimit:10.43299961;stroke-dasharray:none;stroke-dashoffset:0;stroke-opacity:1"
         id="g8445"
         xml:space="preserve"
         transform="matrix(0.8571429,0,0,-0.8571429,-150,600)"><path
           style="fill:#000000;stroke-width:0"
           id="path8447"
           d="M 488.93,417.46 L 489.06,417.46 L 489.2,417.46 L 489.34,417.46 L 489.41,417.47 L 489.48,417.47 L 489.55,417.48 L 489.62,417.49 L 489.69,417.5 L 489.75,417.51 L 489.82,417.52 L 489.88,417.54 L 489.95,417.56 L 490.01,417.58 L 490.07,417.61 L 490.13,417.63 L 490.18,417.67 L 490.23,417.7 L 490.28,417.74 L 490.33,417.78 L 490.37,417.83 L 490.39,417.85 L 490.41,417.88 L 490.43,417.9 L 490.45,417.93 L 490.46,417.96 L 490.48,417.99 L 490.49,418.02 L 490.51,418.06 L 490.52,418.09 L 490.53,418.12 L 490.54,418.16 L 490.55,418.2 L 490.55,418.24 L 490.56,418.28 L 490.56,418.32 L 490.57,418.36 L 490.57,418.41 L 490.57,418.45 C 490.57,419.45 489.63,419.45 488.93,419.45 L 461.78,419.45 C 461.08,419.45 460.13,419.45 460.13,418.45 C 460.13,417.46 461.08,417.46 461.78,417.46 L 488.93,417.46 z " /><path
           style="fill:#000000;stroke-width:0"
           id="path8449"
           d="M 509.39,424.03 L 509.72,424.21 L 510.05,424.39 L 510.37,424.57 L 510.68,424.76 L 510.98,424.95 L 511.28,425.15 L 511.57,425.35 L 511.85,425.55 L 512.12,425.76 L 512.38,425.98 L 512.63,426.2 L 512.88,426.42 L 513.11,426.64 L 513.33,426.88 L 513.55,427.11 L 513.75,427.35 L 513.94,427.59 L 514.13,427.84 L 514.3,428.09 L 514.46,428.35 L 514.61,428.61 L 514.74,428.88 L 514.87,429.15 L 514.98,429.42 L 515.08,429.7 L 515.17,429.98 L 515.24,430.26 L 515.31,430.55 L 515.35,430.85 L 515.39,431.15 L 515.41,431.45 L 515.42,431.75 C 515.42,436.34 510.98,439.18 506.45,439.18 L 506.4,437.93 C 510.04,437.93 513.23,435.34 513.23,431.75 C 513.23,428.91 511.29,426.52 508.3,424.78 L 502.12,428.77 C 499.83,430.26 499.63,431.95 499.63,432.8 C 499.63,435.84 502.87,437.93 506.4,437.93 L 506.45,439.18 C 501.47,439.18 497.44,435.49 497.44,430.86 C 497.44,429.96 497.54,427.72 499.63,425.38 C 500.18,424.78 502.02,423.54 503.27,422.69 L 504.41,421.94 C 505.8,421.09 508.15,419.6 510.54,418.05 C 511.93,417.11 514.27,415.61 514.27,412.57 C 514.27,408.89 510.54,406.3 506.45,406.3 C 502.17,406.3 498.58,409.39 498.58,413.52 C 498.58,416.41 500.18,419.6 504.41,421.94 L 504.41,421.94 L 503.27,422.69 C 500.38,421.24 496.09,418.45 496.09,413.52 C 496.09,408.24 501.17,404.9 506.4,404.9 C 512.03,404.9 516.77,409.04 516.77,414.37 C 516.77,416.16 516.22,418.4 514.32,420.5 C 513.38,421.54 512.58,422.04 509.39,424.03 z " /><path
           style="fill:#000000;stroke-width:0"
           id="path8451"
           d="M 541.91,421.94 L 541.91,422.69 L 541.9,423.43 L 541.88,424.18 L 541.85,424.92 L 541.8,425.67 L 541.74,426.41 L 541.67,427.15 L 541.57,427.88 L 541.46,428.61 L 541.32,429.34 L 541.16,430.06 L 540.97,430.78 L 540.75,431.49 L 540.51,432.2 L 540.23,432.9 L 540.08,433.25 L 539.92,433.6 C 537.63,438.38 533.55,439.18 531.45,439.18 C 528.47,439.18 524.83,437.88 522.78,433.25 C 521.19,429.81 520.94,425.93 520.94,421.94 C 520.94,418.2 521.14,413.72 523.18,409.93 C 525.33,405.9 528.96,404.9 531.4,404.9 L 531.4,406 C 529.46,406 526.52,407.25 525.63,412.03 C 525.08,415.02 525.08,419.6 525.08,422.54 C 525.08,425.73 525.08,429.01 525.48,431.7 C 526.42,437.63 530.16,438.08 531.4,438.08 C 533.05,438.08 536.34,437.18 537.28,432.25 C 537.78,429.46 537.78,425.68 537.78,422.54 C 537.78,418.8 537.78,415.41 537.23,412.23 C 536.48,407.5 533.65,406 531.4,406 L 531.4,406 L 531.4,404.9 C 534.09,404.9 537.88,405.95 540.07,410.68 C 541.66,414.12 541.91,418 541.91,421.94 z " /></g>    </g>
    <g
       id="g8733"
       transform="matrix(0.5,0,0,0.5,-61.747152,-78.779991)">
      <g
         style="font-style:normal;font-variant:normal;font-weight:normal;font-stretch:normal;letter-spacing:normal;word-spacing:normal;text-anchor:start;fill:none;fill-opacity:1;fill-rule:evenodd;stroke:#000000;stroke-width:2;stroke-linecap:butt;stroke-linejoin:miter;stroke-miterlimit:10.43299961;stroke-dasharray:none;stroke-dashoffset:0;stroke-opacity:1"
         id="g8735"
         xml:space="preserve"
         transform="matrix(0.8571429,0,0,-0.8571429,-150,600)"><path
           style="fill:#000000;stroke-width:0"
           id="path8737"
           d="M 478.91,421.94 L 478.91,422.69 L 478.9,423.43 L 478.88,424.18 L 478.85,424.92 L 478.8,425.67 L 478.74,426.41 L 478.67,427.15 L 478.57,427.88 L 478.46,428.61 L 478.32,429.34 L 478.16,430.06 L 477.97,430.78 L 477.75,431.49 L 477.51,432.2 L 477.23,432.9 L 477.08,433.25 L 476.92,433.6 C 474.63,438.38 470.55,439.18 468.45,439.18 C 465.46,439.18 461.83,437.88 459.79,433.25 C 458.19,429.81 457.94,425.93 457.94,421.94 C 457.94,418.2 458.14,413.72 460.18,409.93 C 462.33,405.9 465.96,404.9 468.4,404.9 L 468.4,406 C 466.46,406 463.52,407.25 462.63,412.03 C 462.08,415.02 462.08,419.6 462.08,422.54 C 462.08,425.73 462.08,429.01 462.48,431.7 C 463.42,437.63 467.16,438.08 468.4,438.08 C 470.05,438.08 473.34,437.18 474.28,432.25 C 474.78,429.46 474.78,425.68 474.78,422.54 C 474.78,418.8 474.78,415.41 474.23,412.23 C 473.48,407.5 470.64,406 468.4,406 L 468.4,406 L 468.4,404.9 C 471.09,404.9 474.88,405.95 477.07,410.68 C 478.66,414.12 478.91,418 478.91,421.94 z " /></g>    </g>
    <g
       id="g9020"
       transform="matrix(0.7,0,0,0.7,568.87799,-1.3999878)">
      <g
         style="font-style:normal;font-variant:normal;font-weight:normal;font-stretch:normal;letter-spacing:normal;word-spacing:normal;text-anchor:start;fill:none;fill-opacity:1;fill-rule:evenodd;stroke:#000000;stroke-width:1.42857146;stroke-linecap:butt;stroke-linejoin:miter;stroke-miterlimit:10.43299961;stroke-dasharray:none;stroke-dashoffset:0;stroke-opacity:1"
         id="g9022"
         xml:space="preserve"
         transform="matrix(0.8571429,0,0,-0.8571429,-150,600)"><path
           style="fill:#000000;stroke-width:0"
           id="path9024"
           d="M 470.64,437.88 L 470.64,437.93 L 470.64,437.99 L 470.64,438.04 L 470.64,438.09 L 470.64,438.14 L 470.64,438.19 L 470.64,438.23 L 470.64,438.28 L 470.64,438.32 L 470.64,438.36 L 470.64,438.4 L 470.64,438.44 L 470.64,438.48 L 470.63,438.52 L 470.63,438.55 L 470.63,438.59 L 470.62,438.62 L 470.62,438.65 L 470.61,438.71 L 470.6,438.76 L 470.58,438.81 L 470.57,438.86 L 470.55,438.9 L 470.53,438.94 L 470.5,438.98 L 470.47,439.01 L 470.44,439.03 L 470.41,439.06 L 470.37,439.08 L 470.32,439.1 L 470.3,439.11 L 470.27,439.12 L 470.25,439.12 L 470.22,439.13 L 470.19,439.14 L 470.16,439.14 L 470.13,439.15 L 470.1,439.15 L 470.07,439.16 L 470.03,439.16 L 469.99,439.16 L 469.96,439.16 L 469.92,439.17 L 469.88,439.17 L 469.84,439.17 L 469.79,439.17 L 469.75,439.17 L 469.7,439.17 L 469.65,439.18 L 469.6,439.18 L 469.55,439.18 L 469.5,439.18 C 466.41,435.99 462.03,435.99 460.43,435.99 L 460.43,434.44 C 461.43,434.44 464.37,434.44 466.96,435.74 L 466.96,409.93 C 466.96,408.14 466.81,407.54 462.33,407.54 L 460.73,407.54 L 460.73,406 C 462.48,406.15 466.81,406.15 468.8,406.15 C 470.79,406.15 475.13,406.15 476.87,406 L 476.87,407.54 L 475.28,407.54 C 470.79,407.54 470.64,408.09 470.64,409.93 L 470.64,437.88 z " /></g>    </g>
    <path
       style="font-style:normal;font-variant:normal;font-weight:normal;font-stretch:normal;letter-spacing:normal;word-spacing:normal;text-anchor:start;fill:#000000;fill-opacity:1;fill-rule:evenodd;stroke:#000000;stroke-width:0;stroke-linecap:butt;stroke-linejoin:miter;stroke-miterlimit:10.43299961;stroke-dasharray:none;stroke-dashoffset:0;stroke-opacity:1"
       id="path9312"
       d="M 727.5,288.706 L 726.75,288.706 C 726.6,289.606 726.39,290.92 726.09,291.37 C 725.886,291.604 723.912,291.604 723.252,291.604 L 717.876,291.604 L 721.044,288.532 C 725.706,284.404 727.5,282.79 727.5,279.802 C 727.5,276.394 724.806,274 721.158,274 C 717.786,274 715.572,276.754 715.572,279.412 C 715.572,281.086 717.066,281.086 717.156,281.086 C 717.666,281.086 718.71,280.726 718.71,279.502 C 718.71,278.728 718.17,277.948 717.126,277.948 C 716.886,277.948 716.826,277.948 716.736,277.978 C 717.426,276.034 719.04,274.93 720.774,274.93 C 723.492,274.93 724.776,277.348 724.776,279.802 C 724.776,282.19 723.282,284.554 721.638,286.408 L 715.902,292.804 C 715.572,293.128 715.572,293.188 715.572,293.908 L 726.66,293.908 L 727.5,288.706 z " />
    <path
       style="font-style:normal;font-variant:normal;font-weight:normal;font-stretch:normal;letter-spacing:normal;word-spacing:normal;text-anchor:start;fill:#000000;fill-opacity:1;fill-rule:evenodd;stroke:#000000;stroke-width:0;stroke-linecap:butt;stroke-linejoin:miter;stroke-miterlimit:10.43299961;stroke-dasharray:none;stroke-dashoffset:0;stroke-opacity:1"
       id="path9314"
       d="M 695.008,363.816 L 695.23,363.738 L 695.45799,363.654 L 695.674,363.558 L 695.89,363.456 L 696.1,363.348 L 696.304,363.234 L 696.50199,363.114 L 696.694,362.988 L 696.87999,362.856 L 697.06,362.718 L 697.24,362.574 L 697.408,362.424 L 697.57,362.268 L 697.72599,362.106 L 697.876,361.944 L 698.01399,361.77 L 698.152,361.596 L 698.278,361.416 L 698.39799,361.236 L 698.512,361.05 L 698.614,360.858 L 698.71,360.66 L 698.8,360.462 L 698.878,360.264 L 698.95,360.06 L 699.01,359.85 L 699.06399,359.64 L 699.11199,359.43 L 699.142,359.214 L 699.166,358.998 L 699.184,358.782 L 699.18999,358.56 C 699.18999,356.106 696.562,354.432 693.688,354.432 C 690.66999,354.432 688.40199,356.226 688.40199,358.5 C 688.40199,359.484 689.056,360.054 689.926,360.054 C 690.85,360.054 691.45,359.394 691.45,358.53 C 691.45,357.036 690.046,357.036 689.596,357.036 C 690.52,355.572 692.494,355.182 693.56799,355.182 C 694.798,355.182 696.442,355.836 696.442,358.53 C 696.442,358.89 696.38199,360.624 695.602,361.938 C 694.708,363.372 693.688,363.462 692.944,363.492 C 692.704,363.522 691.984,363.582 691.78,363.582 C 691.54,363.612 691.33,363.642 691.33,363.936 C 691.33,364.266 691.54,364.266 692.04999,364.266 L 693.364,364.266 C 695.812,364.266 696.916,366.3 696.916,369.228 C 696.916,373.296 694.858,374.16 693.538,374.16 C 692.254,374.16 690.016,373.656 688.966,371.886 C 690.016,372.036 690.94,371.382 690.94,370.248 C 690.94,369.168 690.136,368.574 689.266,368.574 C 688.552,368.574 687.592,368.988 687.592,370.302 C 687.592,373.026 690.37599,375 693.634,375 C 697.276,375 700,372.276 700,369.228 C 700,366.78 698.116,364.446 695.008,363.816 z " />
    <path
       style="font-style:normal;font-variant:normal;font-weight:normal;font-stretch:normal;letter-spacing:normal;word-spacing:normal;text-anchor:start;fill:#000000;fill-opacity:1;fill-rule:evenodd;stroke:#000000;stroke-width:0;stroke-linecap:butt;stroke-linejoin:miter;stroke-miterlimit:10.43299961;stroke-dasharray:none;stroke-dashoffset:0;stroke-opacity:1"
       id="path9316"
       d="M 656.5,422.568 L 664.456,422.568 L 664.456,425.166 C 664.456,426.246 664.396,426.576 662.182,426.576 L 661.55201,426.576 L 661.55201,427.5 C 662.776,427.41 664.336,427.41 665.59,427.41 C 666.844,427.41 668.428,427.41 669.65201,427.5 L 669.65201,426.576 L 669.028,426.576 C 666.814,426.576 666.75401,426.246 666.75401,425.166 L 666.75401,422.568 L 669.742,422.568 L 669.742,421.644 L 666.75401,421.644 L 666.75401,408.042 C 666.75401,407.442 666.75401,407.268 666.274,407.268 C 666.00401,407.268 665.92,407.268 665.68,407.622 L 656.5,421.644 L 657.34,421.644 L 664.636,410.496 L 664.636,421.644 L 657.34,421.644 L 656.5,421.644 L 656.5,422.568 z " />
    <path
       style="font-style:normal;font-variant:normal;font-weight:normal;font-stretch:normal;letter-spacing:normal;word-spacing:normal;text-anchor:start;fill:#000000;fill-opacity:1;fill-rule:evenodd;stroke:#000000;stroke-width:0;stroke-linecap:butt;stroke-linejoin:miter;stroke-miterlimit:10.43299961;stroke-dasharray:none;stroke-dashoffset:0;stroke-opacity:1"
       id="path9318"
       d="M 643.428,457.834 L 643.422,457.504 L 643.398,457.174 L 643.362,456.85 L 643.314,456.532 L 643.254,456.214 L 643.176,455.908 L 643.092,455.608 L 642.99,455.308 L 642.882,455.02 L 642.76201,454.738 L 642.624,454.462 L 642.48,454.198 L 642.324,453.94 L 642.156,453.694 L 641.982,453.454 L 641.796,453.226 L 641.604,453.01 L 641.4,452.8 L 641.184,452.602 L 640.962,452.422 L 640.734,452.248 L 640.494,452.086 L 640.248,451.942 L 639.996,451.81 L 639.738,451.69 L 639.468,451.588 L 639.198,451.498 L 638.916,451.42 L 638.634,451.366 L 638.34,451.324 L 638.046,451.294 L 637.746,451.288 C 636.312,451.288 635.028,451.762 633.948,452.812 L 633.948,446.986 C 634.548,447.16 635.538,447.37 636.492,447.37 C 640.17,447.37 642.25801,444.652 642.25801,444.262 C 642.25801,444.082 642.168,443.932 641.964,443.932 C 641.934,443.932 641.874,443.932 641.724,444.022 C 641.124,444.292 639.66,444.892 637.656,444.892 C 636.462,444.892 635.088,444.682 633.684,444.052 C 633.44401,443.962 633.384,443.962 633.324,443.962 C 633.024,443.962 633.024,444.202 633.024,444.682 L 633.024,453.532 C 633.024,454.066 633.024,454.306 633.44401,454.306 C 633.654,454.306 633.714,454.216 633.834,454.036 C 634.164,453.556 635.268,451.948 637.686,451.948 C 639.24,451.948 639.99,453.316 640.224,453.856 C 640.704,454.966 640.764,456.13 640.764,457.624 C 640.764,458.668 640.764,460.462 640.05,461.716 C 639.33,462.886 638.226,463.66 636.852,463.66 C 634.668,463.66 632.964,462.076 632.46,460.312 C 632.544,460.342 632.634,460.372 632.964,460.372 C 633.948,460.372 634.458,459.628 634.458,458.908 C 634.458,458.194 633.948,457.444 632.964,457.444 C 632.544,457.444 631.5,457.654 631.5,459.028 C 631.5,461.602 633.564,464.5 636.912,464.5 C 640.374,464.5 643.428,461.626 643.428,457.834 z " />
    <g
       id="g9959"
       transform="matrix(0.7,0,0,0.7,232.48624,378.16204)">
      <g
         id="g9961"
         transform="matrix(0.8571429,0,0,-0.8571429,-150,637.5)"
         style="font-style:normal;font-variant:normal;font-weight:normal;font-stretch:normal;letter-spacing:normal;word-spacing:normal;text-anchor:start;fill:none;fill-opacity:1;fill-rule:evenodd;stroke:#000000;stroke-width:1.42857146;stroke-linecap:butt;stroke-linejoin:miter;stroke-miterlimit:10.43299961;stroke-dasharray:none;stroke-dashoffset:0;stroke-opacity:1"
         xml:space="preserve"><path
           id="path9963"
           d="M 469.15,410.09 L 469.2,409.8 L 469.25,409.52 L 469.31,409.25 L 469.38,408.99 L 469.45,408.73 L 469.53,408.49 L 469.62,408.26 L 469.71,408.04 L 469.82,407.82 L 469.92,407.62 L 470.04,407.43 L 470.16,407.24 L 470.29,407.06 L 470.42,406.9 L 470.56,406.74 L 470.71,406.59 L 470.86,406.45 L 471.02,406.32 L 471.18,406.2 L 471.35,406.09 L 471.53,405.99 L 471.71,405.89 L 471.9,405.81 L 472.09,405.74 L 472.29,405.67 L 472.5,405.61 L 472.71,405.56 L 472.92,405.52 L 473.14,405.49 L 473.37,405.47 L 473.6,405.46 L 473.83,405.45 C 476.77,405.45 479.46,407.34 481.45,410.09 C 485.19,415.27 486.14,422.79 486.14,424.48 C 486.14,428.02 484.29,428.02 484,428.02 C 482.75,428.02 481.5,426.72 481.5,425.63 C 481.5,424.98 481.8,424.68 482.25,424.28 C 483.84,422.64 484,421.04 484,419.95 C 484,415.71 479.76,409.04 474.53,409.04 C 474.08,409.04 472.69,409.04 471.79,410.18 C 471.19,410.98 470.79,411.93 470.79,412.93 C 470.79,413.07 470.79,413.17 471.09,413.72 C 472.04,415.96 472.74,418.7 472.74,419.35 C 472.74,419.95 472.39,420.5 471.69,420.5 C 471.14,420.5 470.7,420.05 470.3,419.25 C 470.2,419 469.6,416.81 469.25,414.22 C 469.15,413.32 469.15,413.22 468.8,412.88 C 466.61,409.84 464.32,409.04 462.63,409.04 C 459.34,409.04 458.24,411.78 458.24,414.72 C 458.24,418.45 460.09,422.59 462.43,425.93 C 462.93,426.62 462.93,426.72 462.93,426.87 C 462.93,427.27 462.63,427.47 462.33,427.47 C 461.53,427.47 459.24,423.09 458.54,421.49 C 456.7,417.06 456.65,412.97 456.65,412.53 C 456.65,408.54 458.14,405.45 461.93,405.45 C 465.16,405.45 467.56,407.74 469.15,410.09 z "
           style="fill:#000000;stroke-width:0" /><path
           id="path9965"
           d="M 509.87,441.47 L 509.88,441.5 L 509.89,441.53 L 509.9,441.56 L 509.91,441.58 L 509.92,441.61 L 509.93,441.64 L 509.95,441.69 L 509.97,441.74 L 509.98,441.79 L 510,441.83 L 510.01,441.87 L 510.02,441.91 L 510.04,441.95 L 510.05,441.99 L 510.06,442.02 L 510.06,442.05 L 510.07,442.08 L 510.08,442.11 L 510.09,442.14 L 510.09,442.16 L 510.1,442.19 L 510.1,442.21 L 510.1,442.23 L 510.11,442.25 L 510.11,442.26 L 510.11,442.28 L 510.11,442.29 L 510.11,442.31 L 510.12,442.32 L 510.12,442.33 L 510.12,442.34 L 510.12,442.34 L 510.12,442.35 L 510.12,442.36 L 510.12,442.36 C 510.12,442.91 509.67,443.36 509.12,443.36 C 508.77,443.36 508.42,443.21 508.27,442.91 L 490.99,395.44 C 490.74,394.79 490.74,394.59 490.74,394.54 C 490.74,394 491.19,393.55 491.73,393.55 C 492.38,393.55 492.53,393.89 492.83,394.74 L 509.87,441.47 z "
           style="fill:#000000;stroke-width:0" /><path
           id="path9967"
           d="M 521.57,409.89 L 521.57,417.55 C 521.57,422.49 523.66,426.92 527.45,426.92 C 527.79,426.92 527.9,426.92 527.99,426.87 C 527.84,426.82 526.85,426.22 526.85,424.93 C 526.85,423.54 527.9,422.79 528.99,422.79 C 529.89,422.79 531.13,423.38 531.13,424.98 C 531.13,426.57 529.59,428.02 527.45,428.02 C 523.81,428.02 522.02,424.68 521.32,422.54 L 521.32,428.02 L 514.4,427.47 L 514.4,425.93 C 517.88,425.93 518.28,425.58 518.28,423.14 L 518.28,409.79 C 518.28,407.54 517.73,407.54 514.4,407.54 L 514.4,406 C 516.34,406.05 518.68,406.15 520.07,406.15 C 522.07,406.15 524.41,406.15 526.4,406 L 526.4,407.54 L 525.35,407.54 C 521.67,407.54 521.57,408.09 521.57,409.89 z "
           style="fill:#000000;stroke-width:0" /><path
           id="path9969"
           d="M 549.59,409.79 L 549.61,409.6 L 549.64,409.41 L 549.67,409.22 L 549.71,409.04 L 549.76,408.85 L 549.82,408.67 L 549.88,408.49 L 549.95,408.31 L 550.02,408.13 L 550.1,407.95 L 550.19,407.78 L 550.29,407.62 L 550.39,407.45 L 550.49,407.3 L 550.61,407.14 L 550.73,407 L 550.85,406.85 L 550.98,406.72 L 551.12,406.59 L 551.27,406.47 L 551.42,406.35 L 551.57,406.25 L 551.74,406.15 L 551.91,406.06 L 552.08,405.98 L 552.26,405.91 L 552.45,405.84 L 552.64,405.79 L 552.84,405.75 L 553.05,405.72 L 553.26,405.71 L 553.47,405.7 C 554.52,405.7 557.56,406.4 557.56,410.43 L 557.56,413.22 L 556.31,413.22 L 556.31,410.43 C 556.31,407.54 555.07,407.25 554.52,407.25 C 552.88,407.25 552.68,409.49 552.68,409.73 L 552.68,419.7 C 552.68,421.79 552.68,423.73 550.88,425.58 C 548.94,427.52 546.45,428.32 544.06,428.32 C 539.97,428.32 536.53,425.98 536.53,422.69 C 536.53,421.19 537.53,420.35 538.83,420.35 C 540.22,420.35 541.12,421.34 541.12,422.64 C 541.12,423.23 540.87,424.88 538.58,424.93 C 539.93,426.67 542.36,427.22 543.96,427.22 C 546.4,427.22 549.24,425.28 549.24,420.84 L 549.24,419 L 549.24,417.96 L 549.24,412.97 C 549.24,408.24 545.65,406.55 543.41,406.55 C 540.97,406.55 538.93,408.29 538.93,410.78 C 538.93,413.52 541.02,417.66 549.24,417.96 L 549.24,417.96 L 549.24,419 C 546.7,418.85 543.21,418.7 540.07,417.21 C 536.34,415.52 535.09,412.93 535.09,410.73 C 535.09,406.7 539.93,405.45 543.06,405.45 C 546.35,405.45 548.64,407.45 549.59,409.79 z "
           style="fill:#000000;stroke-width:0" /><path
           id="path9971"
           d="M 576.93,408.74 L 576.93,405.45 L 584.25,406 L 584.25,407.54 C 580.77,407.54 580.37,407.89 580.37,410.33 L 580.37,440.57 L 573.19,440.02 L 573.19,438.48 C 576.68,438.48 577.08,438.13 577.08,435.69 L 577.08,424.93 C 575.63,426.72 573.49,428.02 570.8,428.02 L 571,426.92 C 572.75,426.92 574.84,426.18 576.38,423.93 C 576.93,423.09 576.93,422.98 576.93,422.09 L 576.93,422.09 L 576.93,411.88 C 576.93,410.98 576.93,410.88 576.38,410.04 C 574.89,407.64 572.65,406.55 570.5,406.55 C 568.26,406.55 566.47,407.84 565.27,409.73 C 563.98,411.78 563.83,414.62 563.83,416.66 C 563.83,418.5 563.93,421.49 565.37,423.73 C 566.42,425.28 568.31,426.92 571,426.92 L 570.8,428.02 C 564.93,428.02 559.7,423.14 559.7,416.71 C 559.7,410.38 564.57,405.45 570.25,405.45 C 573.44,405.45 575.68,407.14 576.93,408.74 z "
           style="fill:#000000;stroke-width:0" /><path
           id="path9973"
           d="M 612.36,415.66 L 612.47,415.64 L 612.6,415.62 L 612.74,415.59 L 612.9,415.56 L 613.07,415.52 L 613.25,415.47 L 613.43,415.42 L 613.63,415.37 L 613.84,415.31 L 614.05,415.24 L 614.26,415.16 L 614.48,415.07 L 614.7,414.98 L 614.92,414.88 L 615.14,414.76 L 615.36,414.64 L 615.58,414.51 L 615.79,414.37 L 615.99,414.22 L 616.19,414.06 L 616.38,413.88 L 616.56,413.69 L 616.73,413.49 L 616.89,413.28 L 617.03,413.06 L 617.1,412.94 L 617.16,412.82 L 617.22,412.69 L 617.27,412.57 L 617.32,412.44 L 617.37,412.3 L 617.41,412.16 L 617.44,412.02 L 617.47,411.87 L 617.5,411.72 L 617.52,411.57 L 617.53,411.41 L 617.54,411.25 L 617.54,411.08 C 617.54,408.54 615.8,406.55 611.91,406.55 C 607.73,406.55 605.93,409.39 604.99,413.62 C 604.84,414.27 604.79,414.47 604.29,414.47 C 603.65,414.47 603.65,414.12 603.65,413.22 L 603.65,406.65 C 603.65,405.8 603.65,405.45 604.19,405.45 C 604.44,405.45 604.49,405.5 605.44,406.45 C 605.53,406.55 605.53,406.65 606.43,407.59 C 608.63,405.5 610.87,405.45 611.91,405.45 C 617.64,405.45 619.93,408.79 619.93,412.38 C 619.93,415.02 618.44,416.51 617.84,417.11 C 616.2,418.7 614.25,419.1 612.16,419.5 C 609.37,420.05 606.03,420.7 606.03,423.59 C 606.03,425.33 607.33,427.37 611.61,427.37 C 617.09,427.37 617.34,422.89 617.44,421.34 C 617.49,420.89 617.94,420.89 618.04,420.89 C 618.69,420.89 618.69,421.14 618.69,422.09 L 618.69,427.12 C 618.69,427.97 618.69,428.32 618.14,428.32 C 617.89,428.32 617.79,428.32 617.15,427.72 C 616.99,427.52 616.5,427.07 616.3,426.92 C 614.4,428.32 612.36,428.32 611.61,428.32 C 605.53,428.32 603.65,424.98 603.65,422.19 C 603.65,420.45 604.44,419.05 605.78,417.96 C 607.38,416.66 608.77,416.36 612.36,415.66 z "
           style="fill:#000000;stroke-width:0" /><path
           id="path9975"
           d="M 648.05,435.88 L 648.09,435.88 L 648.14,435.88 L 648.18,435.88 L 648.23,435.88 L 648.28,435.88 L 648.33,435.88 L 648.39,435.89 L 648.44,435.89 L 648.49,435.9 L 648.55,435.9 L 648.6,435.91 L 648.65,435.92 L 648.71,435.94 L 648.76,435.95 L 648.81,435.97 L 648.86,435.98 L 648.91,436 L 648.96,436.03 L 649,436.05 L 649.05,436.08 L 649.09,436.12 L 649.13,436.15 L 649.16,436.19 L 649.18,436.21 L 649.2,436.23 L 649.21,436.26 L 649.23,436.28 L 649.24,436.3 L 649.26,436.33 L 649.27,436.36 L 649.28,436.38 L 649.29,436.41 L 649.3,436.44 L 649.31,436.47 L 649.31,436.5 L 649.32,436.54 L 649.33,436.57 L 649.33,436.61 L 649.33,436.64 L 649.34,436.68 L 649.34,436.72 C 649.34,437.59 648.53,437.59 648.05,437.59 L 627.05,437.59 C 626.57,437.59 625.77,437.59 625.77,436.72 C 625.77,435.88 626.6,435.88 627.05,435.88 L 648.05,435.88 z "
           style="fill:#000000;stroke-width:0" /><path
           id="path9977"
           d="M 664.68,450.18 L 664.68,450.22 L 664.68,450.26 L 664.68,450.3 L 664.68,450.34 L 664.68,450.38 L 664.68,450.42 L 664.68,450.45 L 664.68,450.49 L 664.67,450.52 L 664.67,450.55 L 664.67,450.59 L 664.67,450.62 L 664.66,450.64 L 664.66,450.67 L 664.66,450.7 L 664.65,450.73 L 664.65,450.75 L 664.65,450.77 L 664.63,450.82 L 664.62,450.86 L 664.61,450.9 L 664.59,450.93 L 664.57,450.96 L 664.55,450.99 L 664.52,451.02 L 664.5,451.04 L 664.47,451.06 L 664.43,451.08 L 664.4,451.09 L 664.36,451.1 L 664.31,451.12 L 664.26,451.12 L 664.24,451.13 L 664.21,451.13 L 664.18,451.14 L 664.16,451.14 L 664.13,451.14 L 664.1,451.14 L 664.06,451.14 L 664.03,451.15 L 664,451.15 L 663.96,451.15 L 663.93,451.15 L 663.89,451.15 L 663.85,451.15 L 663.81,451.15 L 663.77,451.15 L 663.73,451.15 L 663.68,451.15 L 663.64,451.15 C 661.4,448.96 658.23,448.92 656.8,448.92 L 656.8,447.67 C 657.64,447.67 659.94,447.67 661.85,448.64 L 661.85,430.86 C 661.85,429.71 661.85,429.25 658.37,429.25 L 657.04,429.25 L 657.04,428 C 657.67,428.04 661.96,428.14 663.25,428.14 C 664.33,428.14 668.73,428.04 669.49,428 L 669.49,429.25 L 668.17,429.25 C 664.68,429.25 664.68,429.71 664.68,430.86 L 664.68,450.18 z "
           style="fill:#000000;stroke-width:0" /></g>    </g>
  </g>
</svg>
